<svg xmlns="http://www.w3.org/2000/svg" xmlns:xlink="http://www.w3.org/1999/xlink" width="15.034" height="20" viewBox="0 0 15.034 20">
  <defs>
    <clipPath id="clip-path">
      <path id="Path_5290" data-name="Path 5290" d="M257,139.21h9.816v13.437H257Z" transform="translate(-257 -139.21)" fill="#fff"/>
    </clipPath>
    <clipPath id="clip-path-2">
      <path id="Path_5292" data-name="Path 5292" d="M198,272h15.034v14.523H198Z" transform="translate(-198 -272)" fill="#fff"/>
    </clipPath>
  </defs>
  <g id="download_15_" data-name="download (15)" transform="translate(-198 -139.21)">
    <g id="Group_20122" data-name="Group 20122" transform="translate(200.609 139.21)" clip-path="url(#clip-path)">
      <path id="Path_5289" data-name="Path 5289" d="M262.494,152.643a4.883,4.883,0,0,0,4.883-4.883V144.1a4.883,4.883,0,0,0-9.766,0v3.662a4.883,4.883,0,0,0,4.883,4.883Zm-3.663-5.494v-2.442h1.831v-1.221h-1.776a3.662,3.662,0,0,1,7.215,0h-1.776v1.221h1.831v2.442h-1.831v1.221H266.1a3.663,3.663,0,0,1-7.215,0h1.776v-1.221Z" transform="translate(-257.586 -139.214)" fill="#fff"/>
    </g>
    <g id="Group_20123" data-name="Group 20123" transform="translate(198 144.687)" clip-path="url(#clip-path-2)">
      <path id="Path_5291" data-name="Path 5291" d="M212.162,272.41v3.784a5.7,5.7,0,0,1-1.648,4.014,5.6,5.6,0,0,1-3.978,1.662h-1.25a5.6,5.6,0,0,1-3.978-1.662,5.7,5.7,0,0,1-1.648-4.014V272.41h-1.25v3.784a6.969,6.969,0,0,0,2.014,4.906,6.843,6.843,0,0,0,4.861,2.032v1.261h-1.875a.622.622,0,0,0-.442.185.634.634,0,0,0-.183.446v.631h-1.25v1.261h8.75v-1.262h-1.25v-.631a.635.635,0,0,0-.183-.446.622.622,0,0,0-.442-.185h-1.875v-1.261A6.843,6.843,0,0,0,211.4,281.1a6.97,6.97,0,0,0,2.014-4.906V272.41Z" transform="translate(-198.395 -272.392)" fill="#fff"/>
    </g>
  </g>
</svg>
