<svg xmlns="http://www.w3.org/2000/svg" xmlns:xlink="http://www.w3.org/1999/xlink" width="176.139" height="194.004" viewBox="0 0 176.139 194.004">
  <defs>
    <filter id="noun-location-4744346" x="0" y="0" width="176.139" height="194.004" filterUnits="userSpaceOnUse">
      <feOffset dx="5" dy="5" input="SourceAlpha"/>
      <feGaussianBlur stdDeviation="15" result="blur"/>
      <feFlood flood-color="#0d5551" flood-opacity="0.251"/>
      <feComposite operator="in" in2="blur"/>
      <feComposite in="SourceGraphic"/>
    </filter>
    <clipPath id="clip-path">
      <rect id="Rectangle_1694" data-name="Rectangle 1694" width="26.331" height="36.401" fill="none"/>
    </clipPath>
  </defs>
  <g id="Group_20298" data-name="Group 20298" transform="translate(-1310.001 -781)">
    <g transform="matrix(1, 0, 0, 1, 1310, 781)" filter="url(#noun-location-4744346)">
      <path id="noun-location-4744346-2" data-name="noun-location-4744346" d="M176.6,91.49a43.089,43.089,0,0,0-60.939,60.936l30.47,30.469,30.47-30.469A43.137,43.137,0,0,0,176.6,91.49ZM158.076,133.9a16.779,16.779,0,1,1,4.992-11.942A16.888,16.888,0,0,1,158.076,133.9Z" transform="translate(-63.07 -38.89)" fill="#0d5551"/>
    </g>
    <circle id="Ellipse_492" data-name="Ellipse 492" cx="28.267" cy="28.267" r="28.267" transform="translate(1364.219 835.619)" fill="#fff"/>
    <g id="Group_20082" data-name="Group 20082" transform="translate(1379.905 846.841)">
      <g id="Group_20075" data-name="Group 20075" transform="translate(0.001)" clip-path="url(#clip-path)">
        <path id="Path_5007" data-name="Path 5007" d="M142.729,310.633c.027.006.04-.005,0,0" transform="translate(-126.171 -274.595)" fill="#d94949"/>
        <path id="Path_5008" data-name="Path 5008" d="M66.366,262.824a.074.074,0,0,0,0-.011c-.032-.008-.061-.016-.082-.024Z" transform="translate(-58.594 -232.303)" fill="#d94949"/>
        <path id="Path_5009" data-name="Path 5009" d="M68.623,246.84l.009-.011c-.02,0-.039,0-.009.011" transform="translate(-60.649 -218.195)" fill="#d94949"/>
        <path id="Path_5010" data-name="Path 5010" d="M69.6,309.953v.009a.141.141,0,0,0,.063-.016.386.386,0,0,1-.061.014.047.047,0,0,1,0-.007" transform="translate(-61.529 -273.989)" fill="#d94949"/>
        <path id="Path_5011" data-name="Path 5011" d="M164.438,283.809l0,.008a.192.192,0,0,1,.02-.02Z" transform="translate(-145.362 -250.874)" fill="#d94949"/>
        <path id="Path_5012" data-name="Path 5012" d="M164.217,284c-.024.041-.046-.011-.053-.029a.115.115,0,0,0-.027.138c.05,0,.043-.088.08-.108" transform="translate(-145.085 -251.027)" fill="#d94949"/>
        <path id="Path_5013" data-name="Path 5013" d="M123.692,254.567l.019-.02a.08.08,0,0,0-.019.02" transform="translate(-109.343 -225.017)" fill="#d94949"/>
        <path id="Path_5014" data-name="Path 5014" d="M90.828,288.57l.012-.007s0,0-.012.007" transform="translate(-80.291 -255.086)" fill="#d94949"/>
        <path id="Path_5015" data-name="Path 5015" d="M132.173,254.491l.01-.08a.242.242,0,0,0-.01.08" transform="translate(-116.84 -224.897)" fill="#d94949"/>
        <path id="Path_5016" data-name="Path 5016" d="M66.046,262.687l-.031-.014a.175.175,0,0,0,.031.014" transform="translate(-58.357 -232.201)" fill="#d94949"/>
        <path id="Path_5017" data-name="Path 5017" d="M69.187,228.443a.142.142,0,0,0,.061.005.043.043,0,0,1,0-.008Z" transform="translate(-61.161 -201.939)" fill="#d94949"/>
        <path id="Path_5018" data-name="Path 5018" d="M145.541,223.788a.213.213,0,0,0,0-.031l-.035.057a.069.069,0,0,0,.04-.026" transform="translate(-128.622 -197.799)" fill="#d94949"/>
        <path id="Path_5019" data-name="Path 5019" d="M86.791,215.65c0-.009.01-.018.009-.028a1.64,1.64,0,0,0-.451-.029l.017.1Z" transform="translate(-76.332 -190.582)" fill="#d94949"/>
        <path id="Path_5020" data-name="Path 5020" d="M71.443,215.927l-.253-.2a16.678,16.678,0,0,0,1.888-.052l-.039.043c.1.045.158-.4,1.278.143v.02c.039,0,.038-.043.116.01l-.193-.12a1.132,1.132,0,0,1,.372-.157.125.125,0,0,1,.047.094l.379-.033.116.127c.116-.069.063-.337.373-.188-.117-.186.154-.111.116-.206.016.023.051.057.08.089a1.414,1.414,0,0,0,.617-.169,6.174,6.174,0,0,1-.915-.59c.26.051.068-.023.017-.085l-.017.046c-.155-.045-.155-.163-.233-.2a.192.192,0,0,0,0,.033l.01-.016a.048.048,0,0,1-.005.047c0,.025-.005.045-.048.038l.008-.012a.656.656,0,0,1-.226-.01v-.1c-.115.187-.774-.285-.929-.291-.155-.124-.348.031-.542-.031-.309-.032-.155-.143-.31-.227-.194-.061.039.114-.039.121l-.232-.136c.135-.012.062-.071.037-.109-.2-.017-.517-.2-.579,0-.271-.094-.272-.172-.388-.182.039.036.116.068.117.108-.108-.086-.052.021-.007.041-.166.085-.859-.357-.894-.142V213.6c-.039.16.023.315-.092.4L71,213.931l-.116.069c-.078-.052-.04-.094-.04-.114a1.684,1.684,0,0,1-.682-.036l.243.436c-.193-.1-.542-.305-.581-.165l-.116-.147c-.388-.28-.271.121-.425.037l-.195-.159.194,0a1.918,1.918,0,0,1-.228-.11c-.081-.036-.178-.075-.3-.127,0,0,0,0,0,0,.017.007.029.014.032.024l-.041,0c-.028.079-.165.134-.362.129a3.245,3.245,0,0,0-.4.018,1.782,1.782,0,0,1-.6-.092q0,.081.009.163l-.412-.1-.119-.13c.353.008.983-.042,1.445-.048l-.01-.059c-.282,0-.567.058-.753.045a1.087,1.087,0,0,1-.238-.1c-.081-.048-.14-.1-.079-.147q-.05.064-.092.127c-.294,0-.5.008-.66.007a4.444,4.444,0,0,1-.03.514c-.02.176-.053.381-.1.718l.065-.057c.038.225.076.432-.03.452a8.4,8.4,0,0,1-.08.917l0,.028c0,.007,0,.011,0,.017l-.009.031-.019.061q-.02.06-.043.116a1.1,1.1,0,0,1-.108.2l.153.052c-.008.077-.24.192-.025.229l.068.164c-.012.1.076.169-.012.288h0a.254.254,0,0,1-.018.022h.013c-.068.237.137,0,.049.269-.109.087.194.1.16.229l-.22.133c-.126.24.094.281.095.628a.29.29,0,0,1-.432.137c.2.152.131.069.228.271-.083.031-.1.01-.175-.035-.1.179.075.11.07.245.156.039.4.084.414.128l.049-.052a.477.477,0,0,1,.044.465l-.078-.006.04.177-.1.011.031.252.027-.035a.689.689,0,0,1,0,.365l-.056,0c-.174.314.054.573.072.94l-.114-.048c-.113.125.175.034.119.184l-.14.007c.184.131-.039.17-.108.26l.183-.042-.039.171c-.03.151-.088.213-.15.219a.331.331,0,0,1-.177-.057q.072.118.144.225l-.161.07c.094.075.086.117.068.182a.41.41,0,0,0,0,.29c-.061.045-.1-.024-.122.093q.114.226.228.412-.05-.122-.1-.254l.236-.061a.313.313,0,0,1,.063.3.508.508,0,0,0-.022.279l-.07-.1c.057.306-.043.389-.1.632.044-.1.109-.237.14-.124.013.09-.083.121-.109.242.141-.094.223.021.184.25a.223.223,0,0,1,.049.018.366.366,0,0,1-.079.058c.082-.025.147-.066.209-.028l-.221.175q.177-.083.343-.166c.087.048.367-.079.261.039l-.1.035.952.042-.045.14a.372.372,0,0,1,.336-.066c.118.012.222.019.233-.1.077.065.269.042.415.037s.256.006.2.142h.085l.063,0a.944.944,0,0,0,.119-.023c.077-.02.149-.046.224-.069a.845.845,0,0,1,.532-.012c.158.23.591.156.875.18.556-.1.916-.183,1.484-.256.342.321.853-.111,1.221.071l.1-.127c.245.2.618-.045.961.152a.939.939,0,0,1,.1-.058l.017-.008.024-.006.034-.006a.088.088,0,0,1-.047-.027c-.018-.017-.019-.043-.025-.084a.165.165,0,0,0,.06.016c.025,0,.052.006.08.008.055,0,.113.005.165.01.1.01.187.032.189.113l-.042.017c0,.081.134.062.293.04a.8.8,0,0,1,.466.024q-.091-.087-.176-.173l.336.029-.071.033a3.044,3.044,0,0,1,.7-.135,4.484,4.484,0,0,1,.649.007c.022-.266.059-.516.064-.817a3.861,3.861,0,0,0-.123-1.049c.095.113.07.042.047-.05s-.043-.2.06-.191a.422.422,0,0,0,.061-.459c-.007-.019-.014-.037-.022-.055a.2.2,0,0,0-.025-.034l-.053-.061a.513.513,0,0,1-.085-.119.074.074,0,0,1-.038-.011l.025-.274c.261.163-.217-.2.006-.047a2.638,2.638,0,0,0,.082-.541q0-.071.006-.144c0-.061,0-.122,0-.184,0-.166,0-.334,0-.5-.012-.681-.04-1.349-.01-2.041l-.2-.01,0,.067c-.167-.005-.375.013-.56.02a1.012,1.012,0,0,1-.454-.052.581.581,0,0,0-.421.049c-.145.058-.264.131-.313.137a.4.4,0,0,1-.344-.01c-.076-.041-.106-.1-.046-.09a1.058,1.058,0,0,0-.226.056l-.056.02a.2.2,0,0,0-.04.021l-.073.041a.385.385,0,0,1-.337.036c-.09-.221-.7.222-.713-.027l0,.021c-.332-.173-.642.128-1-.029a.165.165,0,0,1,.019-.035l-.72.762.212.832.633.672,1.7-.158.17.032.085.016.043.008.021,0s0,0,0,0a.239.239,0,0,1,.04.066.16.16,0,0,1-.007.132l.032-.015a.118.118,0,0,1,.038.056l0,.012,0,.171.009.348.019.7.047.059c.016.016.031.049.047.044a.7.7,0,0,1,.094.026c-.107.035-.139.042-.142.071a.806.806,0,0,0,.035.124c-.025.011-.084,0-.149-.078l.08.162c-.036.009-.072-.091-.088-.119l-.041.009-.022.006c.008,0-.037,0-.062,0l-.087,0-.693.031c-.462.022-.922.046-1.377.062a16.768,16.768,0,0,1-2.623-.066c-.16-.107-.644-.044-.769-.157-.189.05-.131.087-.168.114a.183.183,0,0,1-.076.056.2.2,0,0,1-.137.006l.02-.018-.019.008-.023-.009a.529.529,0,0,1,.045-.04c-.072.042-.072,0-.047-.048a.409.409,0,0,1,.1-.117h.018l0-.018v-.088q0-.19,0-.378c0-.251-.014-.5-.024-.749l-.07-1.479a18.937,18.937,0,0,1,.05-2.974q.014-.05.026-.1l.011-.051a.141.141,0,0,1,.005-.022l0,0,.031-.015c.016-.008.022-.014.022-.022a.516.516,0,0,0-.037-.091.042.042,0,0,1,.049-.017.106.106,0,0,1,.074.073l.008.048s0,0,0,0l.016,0,.033,0,.072.007c.05,0,.105.007.164.01.236.01.533.008.831,0a8.578,8.578,0,0,0,1.286-.107" transform="translate(-58.281 -188.582)" fill="#d94949"/>
        <path id="Path_5021" data-name="Path 5021" d="M141.109,233.853H141.1c0,.068.013.042.008,0" transform="translate(-124.732 -206.724)" fill="#d94949"/>
        <path id="Path_5022" data-name="Path 5022" d="M101.976,217.08l.014,0-.054-.1Z" transform="translate(-90.111 -191.813)" fill="#d94949"/>
        <path id="Path_5023" data-name="Path 5023" d="M126.238,217.24c-.13-.021-.136,0-.118.023a.174.174,0,0,0,.118-.023" transform="translate(-111.482 -192.029)" fill="#d94949"/>
        <path id="Path_5024" data-name="Path 5024" d="M149.438,232.12c.068.005.042-.035,0-.081l-.118.012c.038.016.076.052.116.068" transform="translate(-131.999 -205.12)" fill="#d94949"/>
        <path id="Path_5025" data-name="Path 5025" d="M147.833,224.34l.021-.055c-.04.014-.039.034-.021.055" transform="translate(-130.673 -198.266)" fill="#d94949"/>
        <path id="Path_5026" data-name="Path 5026" d="M68.211,150.448l-.061-2.858L67.138,148.6l1.794-.017,7.145-.03.967,0,0-.961c-.005-2.912,0-5.809.03-8.823l.009-.982-1-.013-3.111-.039c-.639-.011-.612-.107-1.251-.118a22.714,22.714,0,0,1-4.578.084l-1.032-.034-.036,1.1-.045,1.366c.052.931.112,1.782.141,2.967l.024,1,.948-.032c.28-.009.669-.015,1.1-.017.1-.276,1.982-.329,3.755-.394-.522-.322-2.933-.122-4.379-.118-.1,0-.267-.01-.474-.023l-.451-.028.031-.392c.022-.28.053-.63.056-.778.023-1.11.023-2.359.032-3.555l0-.335.331,0c1.235.008,2.413.026,3.326.087-1.023.016-2.206.021-3.326.02h-.226v.227c0,1.183-.009,2.3-.02,3.242,0,.079-.13.065-.079.626.01.365.075.295.11.464l.052.251.164-.035a3.585,3.585,0,0,1,.787-.008c-.027.062-.8.031-.627.118,1.161-.064,3.077-.033,4.693-.039,0-.591-2.451-1.595-2.5-1.418H67.611a1.152,1.152,0,0,1-.474.111l1.021,1.021c-.066-.587-.084-1.555-.165-2.028.007-.764.023-1.544.039-2.3l-.895.895a22.5,22.5,0,0,0,5.516-.236,26.147,26.147,0,0,1-2.815-.118,31.432,31.432,0,0,1,4.693.276c.692,0,1.077-.04,1.547-.035l-.782-.782c0,.189-.012.4-.035.642a2.1,2.1,0,0,0-.05-.642l.866.866c-.007,0-.007.008,0,.012l-.879-.879s-.011.006-.017.016a45.48,45.48,0,0,0,.079,6.257v1.876c-.094-.013-.117.535-.237.313l-.019.361,1.072-1.072c-2.789-.125-5.148.181-7.459.255-.5.016-1,.017-1.481.016l-.8,0,0,.8a18.832,18.832,0,0,0,.1,2.9" transform="translate(-58.366 -121.65)" fill="#ff9700"/>
        <path id="Path_5027" data-name="Path 5027" d="M77.814,200.333l.061,2.858,1.012-1.012-1.794.017-7.145.03-.967,0,0,.961c.005,2.911,0,5.809-.03,8.823l-.009.982,1,.013,3.111.039c.639.011.612.106,1.251.118a22.7,22.7,0,0,1,4.578-.084l1.032.034.036-1.1c.017-.52.032-.993.045-1.366-.052-.931-.112-1.782-.141-2.967l-.024-1-.948.032c-.28.009-.669.015-1.1.017-.1.276-1.982.329-3.755.394.522.322,2.933.122,4.379.118.1,0,.267.01.474.023l.451.028-.031.392c-.022.28-.053.63-.056.778-.023,1.11-.023,2.359-.032,3.555l0,.335-.331,0c-1.235-.008-2.413-.026-3.326-.087,1.023-.016,2.206-.021,3.326-.02h.226v-.227c0-1.183.009-2.3.02-3.242,0-.079.13-.064.079-.626-.01-.365-.075-.295-.11-.464l-.052-.251-.164.035a3.58,3.58,0,0,1-.787.008c.027-.062.8-.031.627-.118-1.161.064-3.076.033-4.693.039,0,.591,2.451,1.595,2.5,1.418h1.877a1.153,1.153,0,0,1,.474-.111l-1.021-1.021c.066.587.084,1.555.165,2.029-.007.764-.023,1.544-.039,2.3l.895-.895a22.5,22.5,0,0,0-5.516.236,26.2,26.2,0,0,1,2.815.118,31.419,31.419,0,0,1-4.693-.276c-.692,0-1.077.04-1.547.035l.782.782c0-.189.012-.4.035-.642a2.1,2.1,0,0,0,.05.642l-.866-.866c.007,0,.007-.008,0-.012l.879.879s.011-.006.017-.016a45.5,45.5,0,0,0-.079-6.257v-1.876c.094.013.117-.535.237-.313l.019-.361-1.072,1.072c2.789.125,5.148-.181,7.459-.255.5-.016,1-.017,1.481-.016l.8,0,0-.8a18.832,18.832,0,0,0-.1-2.9" transform="translate(-60.945 -177.057)" fill="#ff9700"/>
        <path id="Path_5028" data-name="Path 5028" d="M10.73,8.9a17.921,17.921,0,0,1-2.6,2.385,19.65,19.65,0,0,1-3.07,1.888c-.217.1-.254.014-.471.116-.014.082-.106.176-.249.271a4.244,4.244,0,0,1-.544.282c-.21.09-.438.174-.649.251l-.56.189a7.14,7.14,0,0,1-1.368.706c.029.137-.121.276-.356.417A6.505,6.505,0,0,1,0,15.8c.125.133.41.082.715-.028s.641-.282.9-.381c.1-.035.393-.069.479-.1.832-.27,1.808-.765,2.481-.975A16.86,16.86,0,0,1,2.251,15.36c-.029.009-.071-.111-.255.015-.21.1.056.175-.412.281-.012-.062.279-.136.187-.195a9.749,9.749,0,0,1-1.7.607,1.718,1.718,0,0,0,.747.818c.331.215.641.326.623.24.243-.083.484-.168.723-.257.016-.188.641-.415.844-.626l.908-.345c.3-.12.586-.234.842-.362a1.91,1.91,0,0,0,1-.813A2.775,2.775,0,0,0,5.169,15c-.226.115-.431.206-.463.133.353-.142.714-.315,1.033-.44a1.822,1.822,0,0,1,.757-.2,3.569,3.569,0,0,1,.758-.451c-.128.083-.251.164-.176.2.111-.068.222-.13.33-.193l.318-.184c.208-.119.411-.226.59-.345a4.281,4.281,0,0,0,.486-.354,1.531,1.531,0,0,0,.33-.4c.2-.152.407-.3.6-.465.054.077.242-.047.247.1a3.8,3.8,0,0,0,.7-.527c.1-.1.2-.195.293-.294l.137-.15.127-.157c.166-.21.32-.42.472-.624s.288-.417.442-.611c.427-.551.962-1.037,1.043-1.456a1.206,1.206,0,0,0,.429-.246,1.192,1.192,0,0,1,.413-.266q.146-.206.278-.4c.09-.129.158-.266.232-.394a8.1,8.1,0,0,0,.369-.729q.142-.35.238-.649c.032-.1.062-.194.085-.286s.037-.182.05-.265c.1-.6.1-.894,0-.94s-.28.166-.567.563a3.016,3.016,0,0,1-.474,1.1,2.01,2.01,0,0,1-.144.2,1.2,1.2,0,0,1-.138.131c-.083.065-.146.083-.174.039a4.825,4.825,0,0,0,.442-.79c.058-.124.111-.245.161-.363s.081-.242.119-.361c.073-.24.151-.475.22-.731s.135-.529.229-.831a2.445,2.445,0,0,0,.426-.717,4.359,4.359,0,0,0,.194-.486l.167-.512a2.9,2.9,0,0,0-.006-.3c-.005-.091-.011-.178-.023-.276a3.06,3.06,0,0,1,.038-.8A.757.757,0,0,0,15.426,0c-.16.5-.241,1.308-.533,1.263.09-.16.079-.366-.03-.359a1.07,1.07,0,0,1-.012.28c-.01.043-.022.045-.039.03-.034-.031-.086-.13-.172-.1a9.831,9.831,0,0,0-.192,1.008c-.068.323-.118.643-.172.961-.075.311-.15.621-.241.929a6.849,6.849,0,0,1-.394.889c-.095-.064-.071-.261-.167-.323-.041.079-.079.162-.124.245l-.142.251c-.094.17-.186.345-.271.517a7.874,7.874,0,0,0-.456.9A16.258,16.258,0,0,1,10.73,8.9" fill="#0e4c48"/>
        <path id="Path_5029" data-name="Path 5029" d="M119.037,80.255a20.486,20.486,0,0,0,2.225,1.223c.756.359,1.53.686,2.359,1,.16.06.125.149.287.21.106-.1.385-.05.693.049s.649.232.866.3a6.844,6.844,0,0,1,1.1.031c.033-.135.175-.2.367-.231a3.207,3.207,0,0,1,.32-.034l.369-.024c-.079-.164-.26-.207-.484-.22s-.476,0-.663-.021c-.07-.011-.249-.114-.308-.129a7.617,7.617,0,0,1-1.7-.5l1.641.371c.019.005-.006.132.145.105.155.008.035-.176.336-.067-.016.062-.206,0-.177.093.308-.017.783.08,1.218.095a3.226,3.226,0,0,0-.238-1.016c-.118-.315-.234-.536-.251-.449-.143-.017-.289-.037-.433-.058-.035.082-.149.1-.276.118a1.225,1.225,0,0,0-.356.054c-.374-.086-.751-.233-1.079-.315a1.578,1.578,0,0,0-.451-.067.545.545,0,0,0-.352.115.993.993,0,0,0,.371.143c.149.04.279.084.257.161-.439-.164-.923-.348-1.013-.594-.223-.074-.332-.033-.5-.176.087.027.172.05.169-.023-.585-.207-.982-.6-1.418-.5-.135-.066-.273-.126-.406-.2.045-.082-.061-.163.041-.245a2.288,2.288,0,0,0-.865-.445,6.2,6.2,0,0,1-.857-.3,2.174,2.174,0,0,1-.262-.157l-.23-.174a.8.8,0,0,0-.428-.192c.028-.2-.2-.44-.156-.633-.134-.134-.264-.252-.39-.358s-.24-.207-.354-.29a3.988,3.988,0,0,0-.615-.385,3.116,3.116,0,0,0-.395-.157.238.238,0,0,0-.207.008c-.041.032-.055.094-.046.186a1.311,1.311,0,0,0,.1.361c.44.251.8.825.63.92a3.944,3.944,0,0,0-.4-.426,4.952,4.952,0,0,0-.372-.335c-.128-.1-.249-.207-.375-.325a3.837,3.837,0,0,1-.39-.406,1.448,1.448,0,0,0-.129-.553l-.249-.63c-.206-.187-.377-.208-.593-.638a.982.982,0,0,0-.389.045c.084.341.361.816.138.965-.023-.128-.114-.236-.2-.165.142.16.154.185.111.192s-.136-.01-.189.056a4.437,4.437,0,0,0,.411.62c.151.188.319.354.479.522l.12.125.125.12c.082.081.163.162.241.247a5.65,5.65,0,0,1,.444.539c-.09.067-.224,0-.316.066.079.107.168.22.261.332s.2.217.3.319.2.2.3.278a2.45,2.45,0,0,0,.286.194c.28.238.578.452.871.671s.6.416.914.6" transform="translate(-101.304 -65.871)" fill="#0e4c48"/>
      </g>
    </g>
  </g>
</svg>
