<svg xmlns="http://www.w3.org/2000/svg" width="13.215" height="15" viewBox="0 0 13.215 15">
  <g id="download_4_" data-name="download (4)" transform="translate(-230.609 -210.998)">
    <path id="Path_5060" data-name="Path 5060" d="M298.383,220.481a.627.627,0,0,0,.206.15.658.658,0,0,0,.776-.15l2.808-3.1a.784.784,0,0,0-.489-1.308.655.655,0,0,0-.49.225l-1.627,1.794v-6.337a.7.7,0,1,0-1.386,0v6.337l-1.627-1.794c-.652-.7-1.615.356-.981,1.083Z" transform="translate(-61.65 0)" fill="#0d5551"/>
    <path id="Path_5061" data-name="Path 5061" d="M243.1,420.8a.747.747,0,0,0-.727.765V422.7a2.281,2.281,0,0,1-2.215,2.337h-5.88a2.278,2.278,0,0,1-2.21-2.337v-1.131a.728.728,0,1,0-1.455,0V422.7a3.779,3.779,0,0,0,3.665,3.87h5.88a3.781,3.781,0,0,0,3.67-3.87v-1.131a.748.748,0,0,0-.728-.765Z" transform="translate(0 -200.569)" fill="#0d5551"/>
  </g>
</svg>
