<svg xmlns="http://www.w3.org/2000/svg" width="18.47" height="18.47" viewBox="0 0 18.47 18.47">
  <g id="Group_20087" data-name="Group 20087" transform="translate(-22.032 -16.034)">
    <g id="photos" transform="translate(-151.716 -157.702)">
      <path id="Path_5062" data-name="Path 5062" d="M189.5,173.736H176.464a2.719,2.719,0,0,0-2.716,2.716V189.49a2.719,2.719,0,0,0,2.716,2.716H189.5a2.719,2.719,0,0,0,2.716-2.716V176.452a2.72,2.72,0,0,0-2.717-2.716Zm1.63,15.753a1.632,1.632,0,0,1-1.63,1.63H176.464a1.632,1.632,0,0,1-1.63-1.63v-1.965l4.384-4.872,5.922,5.383,3.275-2.729,2.716,2.263v1.919Zm0-3.332-2.716-2.263-3.244,2.7-6.028-5.482-4.307,4.786v-9.448a1.632,1.632,0,0,1,1.63-1.63H189.5a1.632,1.632,0,0,1,1.63,1.63v9.7Z" fill="#0d5551"/>
      <path id="Path_5063" data-name="Path 5063" d="M402.514,238.648a2.716,2.716,0,1,0-2.716-2.716A2.719,2.719,0,0,0,402.514,238.648Zm0-4.345a1.63,1.63,0,1,1-1.63,1.63A1.632,1.632,0,0,1,402.514,234.3Z" transform="translate(-215.729 -56.764)" fill="#0d5551"/>
    </g>
  </g>
</svg>
