<svg xmlns="http://www.w3.org/2000/svg" width="22.11" height="20" viewBox="0 0 22.11 20">
  <path id="download_13_" data-name="download (13)" d="M290.329,284.559a4.637,4.637,0,0,0-6.544,0l-9.721,9.769A2.783,2.783,0,0,0,278,298.264l6.022-6.07a.939.939,0,0,0-1.328-1.328l-6.07,6.023a.872.872,0,0,1-1.233-1.233l9.721-9.769a2.716,2.716,0,1,1,3.841,3.841l-9.721,9.769a4.56,4.56,0,0,1-6.449-6.449l8.726-8.726a.939.939,0,0,0-1.328-1.328l-8.725,8.678a6.472,6.472,0,0,0,9.152,9.152l9.721-9.721a4.637,4.637,0,0,0,0-6.544Z" transform="translate(-269.571 -282.709)" fill="#0d5551"/>
</svg>
