<svg xmlns="http://www.w3.org/2000/svg" viewBox="0 0 25.79 17.97"><defs><style>.cls-1{fill:gray;}</style></defs><title>invissible</title><g id="Layer_2" data-name="Layer 2"><g id="Layer_1-2" data-name="Layer 1"><g id="noun_hide_2040068" data-name="noun hide 2040068"><g id="Group_187" data-name="Group 187"><g id="Group_186" data-name="Group 186"><path id="Path_197" data-name="Path 197" class="cls-1" d="M25.5,8.27c-.2-.3-5.7-6.6-12.6-6.6a11.41,11.41,0,0,0-4.1.7l8.9,6.8a5,5,0,0,0-.4-4.3A19.71,19.71,0,0,1,23.1,9a28.48,28.48,0,0,1-2.6,2.3l1.8,1.4a28.68,28.68,0,0,0,3.1-2.9C25.9,9.17,25.9,8.67,25.5,8.27Z"/><path id="Path_198" data-name="Path 198" class="cls-1" d="M24.1,16.07,3.1.17a1.1,1.1,0,0,0-1.5.3.91.91,0,0,0,.2,1.4L5,4.27a25.53,25.53,0,0,0-4.7,4,1,1,0,0,0,0,1.4c.2.3,5.7,6.6,12.6,6.6a12,12,0,0,0,5.9-1.5l3.9,3a1.45,1.45,0,0,0,.7.2,1.49,1.49,0,0,0,.9-.4A1.08,1.08,0,0,0,24.1,16.07Zm-11.2-2c-4.7,0-8.8-3.6-10.3-5.2a19.12,19.12,0,0,1,4.2-3.3l1.1.8a2.77,2.77,0,0,0-.1.9,5.21,5.21,0,0,0,5.1,5.2h0a5.93,5.93,0,0,0,2.3-.5l1.7,1.3A11,11,0,0,1,12.9,14.07Z"/></g></g></g></g></g></svg>