<svg xmlns="http://www.w3.org/2000/svg" width="81.829" height="54.627" viewBox="0 0 81.829 54.627">
  <g id="download_10_" data-name="download (10)" transform="translate(0)">
    <path id="Path_5087" data-name="Path 5087" d="M216.59,277.855a19.87,19.87,0,0,1-19.871,19.871c-10.976,0-18.942-8.59-19.871-19.526-1.419-16.687,11.257-30.658,26.649-35.1a19.853,19.853,0,0,0-9.515,15.1,19.4,19.4,0,0,1,2.739-.218,19.87,19.87,0,0,1,19.871,19.871Z" transform="translate(-176.739 -243.099)" fill="#b6c8c1"/>
    <path id="Path_5088" data-name="Path 5088" d="M420.844,277.855a19.871,19.871,0,0,1-19.872,19.871c-10.975,0-18.942-8.59-19.872-19.526-1.419-16.687,11.257-30.658,26.649-35.1a19.856,19.856,0,0,0-9.515,15.1,19.417,19.417,0,0,1,2.739-.218,19.87,19.87,0,0,1,19.871,19.871Z" transform="translate(-339.015 -243.099)" fill="#b6c8c1"/>
  </g>
</svg>
