<?xml version="1.0" encoding="utf-8"?>
<!-- Generator: Adobe Illustrator 21.0.0, SVG Export Plug-In . SVG Version: 6.00 Build 0)  -->
<svg version="1.1" id="Layer_1" xmlns="http://www.w3.org/2000/svg" xmlns:xlink="http://www.w3.org/1999/xlink" x="0px" y="0px"
	 viewBox="0 0 15 15" style="enable-background:new 0 0 15 15;" xml:space="preserve">
<style type="text/css">
	.st0{fill:#FFEEDE;}
</style>
<path id="star" class="st0" d="M15,5.7c-0.1-0.3-0.4-0.5-0.7-0.6L9.9,4.7L8.2,0.5c-0.2-0.4-0.6-0.6-1-0.5C7,0.1,6.8,0.3,6.8,0.5
	L5.1,4.7L0.7,5.1C0.4,5.1,0.1,5.4,0,5.7C-0.1,6,0,6.3,0.3,6.6l3.3,3l-1,4.4c-0.1,0.3,0,0.7,0.3,0.9c0.3,0.2,0.6,0.2,0.9,0l3.7-2.3
	l3.7,2.3c0.3,0.2,0.6,0.2,0.9,0c0.3-0.2,0.4-0.5,0.3-0.9l-1-4.4l3.3-3C15,6.3,15.1,6,15,5.7z"/>
</svg>
