<svg xmlns="http://www.w3.org/2000/svg" xmlns:xlink="http://www.w3.org/1999/xlink" width="510" height="500.053" viewBox="0 0 510 500.053">
  <defs>
    <clipPath id="clip-path">
      <rect id="Rectangle_1782" data-name="Rectangle 1782" width="510" height="500.052" fill="none"/>
    </clipPath>
  </defs>
  <g id="Group_20105" data-name="Group 20105" style="mix-blend-mode: darken;isolation: isolate">
    <g id="Group_20104" data-name="Group 20104" clip-path="url(#clip-path)">
      <path id="Path_5089" data-name="Path 5089" d="M524.052,103.784C590.659,206.467,561.974,343.34,459.983,409.5s-238.669,36.552-305.276-66.13S116.784,103.814,218.775,37.654,457.444,1.1,524.052,103.784" transform="translate(-86.329 -1.728)" fill="#fff"/>
      <path id="Path_5090" data-name="Path 5090" d="M442.246,217.308c-2.783,0-6.264-1.26-9.831-3.625-3.645-2.416-7.61-8.782-11.444-14.939-3.114-5-6.055-9.722-8.27-11.339-4.057-2.96-5.6-1.9-8.995.4-.49.333-1.01.688-1.574,1.054a8.313,8.313,0,0,1-8.456.627A2.7,2.7,0,0,1,392,187.31l.63.012-.63-.012c.258-12.988,21.682-23.627,33.193-29.343,13.4-6.652,23.314-5.388,27.931,3.556,4.631,8.973-6.345,29.9-7.611,32.257-1.318,2.453-.141,6.225,1,9.874,1.006,3.22,2.046,6.55,1.481,9.242a5.145,5.145,0,0,1-3.091,3.934,6.974,6.974,0,0,1-2.659.478m-33.777-32.965a8.589,8.589,0,0,1,4.974,2.046c2.412,1.76,5.416,6.583,8.6,11.69,3.588,5.761,7.655,12.29,11.071,14.555,4.41,2.924,8.746,4.084,11.316,3.031a3.892,3.892,0,0,0,2.337-3.028c.5-2.371-.493-5.542-1.451-8.609-1.217-3.9-2.475-7.925-.906-10.845,4.48-8.335,11.122-24.261,7.6-31.082-4.311-8.353-13.389-9.392-26.251-3.006-11.271,5.6-32.25,16.015-32.493,28.239,0,.193.266.633,1.024,1.055a7.151,7.151,0,0,0,7.158-.584c.556-.36,1.068-.71,1.551-1.038,1.975-1.344,3.563-2.425,5.472-2.425" transform="translate(-284.888 -111.743)"/>
      <path id="Path_5091" data-name="Path 5091" d="M568.635,986.617a6.244,6.244,0,0,0,.135,6.843c4.391,6.121,11.938,23.573,9.617,32.216-2.955,11.007,7.142,20.838,10.051,25.563,5.906,9.6,9.648,13.145,23.862,10.341s18.8-5.414,25.494,3.077,30.63,42.539,39.833,49.4,25.829,16.932,31.788,17.879,15.957-2.865,2.223-12.136-20.984-13.124-19.353-24.342,1.338-34.555-1.976-41.5-1.994-13.144.861-16.065,8.5-9.789,9.121-13.4-7.7-7.3-12.621-12.132-7.113-8.219.406-19.514-5.8-20.837-22.2-15.006-29.823,4.374-32.79-3.862-13.763-.162-22.648.789-12.134-4.5-21.221-2.208c-12.283,3.1-18.032,9.7-20.578,14.051" transform="translate(-412.562 -705.176)" fill="#fff"/>
      <path id="Path_5092" data-name="Path 5092" d="M947.832,288.192a6.541,6.541,0,0,1-1.82-.28c-8.821-2.558-24.341-23.739-24.077-40.076.3-18.55-12.013-24.885-17.322-26.748-4.078-1.431-12.6-13.8-19.035-23.919l-.362-.568c-.079-.122-.186-.325-.324-.592-.865-1.675-2.891-5.6-7.636-6.44-5.843-1.042-13.7,2.911-23.35,11.749-8.355,7.655-16.174,10.746-23.232,9.2-7.855-1.725-14.515-8.989-19.794-21.588-2.537-6.054-6.251-9.839-9.528-13.18a39.658,39.658,0,0,1-5.11-5.918c-4.181-6.446,1.082-17.46,6.233-25.565a62.14,62.14,0,0,0,6.187-13.593c1.405-3.969,2.733-7.718,5.149-11.231,3.493-5.081,7.642-2.992,11.655-.973a21.782,21.782,0,0,0,6.925,2.556c2.782.344,3.594-.956,4.826-2.923,1.674-2.674,3.758-6,11.611-6.11,9.341-.129,15.7-6.786,17.048-11.245.36-1.188.718-3.348-.93-4.484-2.055-1.415-4.179-.947-6.638-.407-3.209.705-6.843,1.5-11.334-1.436-4.928-3.227-3.2-8.4-1.525-13.4,1.116-3.34,2.271-6.794,1.236-9.39s-4.06-4.869-8.291-6.215c-4.259-1.354-8.905-1.447-10.807-.213-1.2.775-.042,3.249,1.294,6.113,2.064,4.426,4.891,10.487,1.136,15.36-3.321,4.31-8.988,4.726-14.468,5.128-4.922.362-10.011.735-13.334,3.925-3.733,3.582-4.283,11.056-4.867,18.969-.507,6.879-1.031,13.991-3.721,19.184-1.934,3.735-4.89,5.153-8.115,3.89-5.213-2.043-9.893-10.654-7.925-17.79,2.435-8.835-2.307-15.605-4.855-19.243-.334-.478-.631-.9-.868-1.266a9.273,9.273,0,0,1-1.14-7.4c1.073-4.059,4.708-7.719,10.8-10.88,4.944-2.564,8.039-5.547,8.951-8.627a5.777,5.777,0,0,0-.208-4.228c-5.774-12.437-9.734-15.168-12.042-15.277-1.7-.085-2.889,1.3-3.573,2.466-.258.476-.127,3.253-.011,5.7.337,7.136.8,16.909-3.48,18.58-2.95,1.15-7.4-1.882-13.591-9.277-8.931-10.662-12.364-18.878-10.2-24.422,1.885-4.838,7.308-5.735,7.846-5.812,9.625-2.308,15.645-6.38,17.893-12.1,3.244-8.259-2.155-17.785-4.626-21.5a.629.629,0,0,1,.447-.974,222.394,222.394,0,0,1,178.935,58.57.628.628,0,0,1,.151.22c2.47,6.012,5.186,14.835,4.09,22.728-.922,6.634,2.317,10.382,5.174,13.689,2.1,2.426,4.078,4.719,3.623,7.649a22.941,22.941,0,0,0-.164,3.044c-.03,2.571-.061,5.229-1.889,5.957-2.126.849-6.628-.686-23.844-18.466C912.984,76.378,900.4,82.332,896.009,85.947a.609.609,0,0,0-.2.669.586.586,0,0,0,.529.415c4.549.332,12.828,1.64,17.153,6.667a11.759,11.759,0,0,1,2.727,8.9c-1.026,13.292,2.228,22.274,9.163,25.291,6.793,2.957,9.793,6.5,12.346,14.571.932,2.948.556,6.94.157,11.166-.765,8.111-1.632,17.3,6.532,21.671,13.514,7.227,21.267,51.54,16.249,65.889-2.339,6.689-3.215,14.675-4.062,22.4-.977,8.909-1.9,17.323-5.028,22.445a4.194,4.194,0,0,1-3.743,2.162M875.386,188.149a11.867,11.867,0,0,1,2.09.18c5.358.953,7.666,5.421,8.535,7.1.112.217.2.385.261.485s.2.3.369.577c8.812,13.866,15.515,22.4,18.389,23.406,5.566,1.953,18.477,8.587,18.165,27.958-.252,15.54,14.885,36.444,23.168,38.846,1.9.552,3.253.117,4.136-1.33,2.982-4.882,3.89-13.161,4.851-21.925.855-7.793,1.738-15.851,4.124-22.676s1.878-20.934-1.266-35.105c-3.4-15.32-8.778-26.258-14.387-29.257-8.9-4.762-7.994-14.4-7.192-22.9.387-4.095.752-7.963-.1-10.667-2.721-8.6-5.924-11.3-11.649-13.8-4.322-1.881-11.36-7.831-9.915-26.543a10.544,10.544,0,0,0-2.426-7.983c-4.028-4.682-11.935-5.915-16.291-6.233A1.827,1.827,0,0,1,894.608,87a1.873,1.873,0,0,1,.6-2.022c4.659-3.838,17.951-10.227,40.7,13.264,12.575,12.986,20.132,19.1,22.473,18.171,1.044-.416,1.071-2.746,1.1-4.8a23.852,23.852,0,0,1,.178-3.222c.365-2.354-1.266-4.242-3.331-6.632-2.882-3.336-6.469-7.487-5.469-14.686,1.049-7.56-1.558-16.085-3.956-21.95A220.1,220.1,0,0,0,770.08,6.854c2.738,4.346,7.428,13.578,4.2,21.8-2.41,6.135-8.736,10.466-18.8,12.874-.02,0-.042.009-.063.012-.052.007-5.212.747-6.876,5.036-1.355,3.495-.721,10.347,10,23.146,7.129,8.511,10.555,9.543,12.167,8.912,3.436-1.342,2.963-11.361,2.68-17.347-.18-3.8-.247-5.665.182-6.4,1.214-2.078,2.907-3.173,4.72-3.088,3.865.183,8.273,5.552,13.1,15.959a7,7,0,0,1,.3,5.161c-1.025,3.465-4.248,6.623-9.579,9.387-5.767,2.99-9.188,6.383-10.166,10.084a8.009,8.009,0,0,0,.979,6.393c.23.354.518.765.843,1.229,2.667,3.807,7.631,10.893,5.038,20.3-1.774,6.435,2.533,14.465,7.171,16.283,2.626,1.029,4.887-.11,6.537-3.3,2.572-4.963,3.086-11.945,3.584-18.7.6-8.16,1.17-15.868,5.251-19.785,3.65-3.5,8.97-3.894,14.114-4.272,5.444-.4,10.586-.777,13.563-4.641,3.287-4.266.755-9.7-1.28-14.059-1.584-3.4-2.953-6.331-.838-7.7,2.258-1.465,7.143-1.437,11.875.069,4.591,1.461,7.9,3.994,9.079,6.949,1.206,3.025-.023,6.7-1.212,10.256-1.592,4.759-3.095,9.255,1.02,11.948,4.049,2.651,7.264,1.943,10.374,1.26,2.632-.579,5.117-1.126,7.623.6,1.686,1.161,2.2,3.306,1.421,5.886-1.742,5.741-9.209,12.015-18.236,12.139-7.167.1-8.97,2.979-10.56,5.519-1.27,2.029-2.466,3.95-6.047,3.5a23.044,23.044,0,0,1-7.337-2.681c-4.169-2.1-7.181-3.614-10.051.562-2.322,3.377-3.623,7.049-5,10.938a64.065,64.065,0,0,1-6.312,13.848c-7,11.017-9.217,19.613-6.239,24.2a38.764,38.764,0,0,0,4.953,5.721c3.356,3.421,7.16,7.3,9.79,13.574,5.112,12.2,11.472,19.213,18.9,20.845,6.637,1.456,14.076-1.535,22.111-8.9,8.877-8.133,16.375-12.24,22.332-12.24" transform="translate(-542.691 -2.985)"/>
      <path id="Path_5093" data-name="Path 5093" d="M232.434,535.907c-5.364,0-19.753-3.967-35.081-10.811-11.048-4.934-30.628-15.058-37.624-27.432-.936-1.655-1.841-3.24-2.715-4.772-10.192-17.853-16.344-28.63-16.706-55.17-.1-7.335-3.329-15.695-9.6-24.847a.632.632,0,0,1-.093-.5,240.353,240.353,0,0,1,12.6-38.092.632.632,0,0,1,.35-.34l.525-.2c7.542-2.948,21.58-8.434,31.742-21.926,6.8-9.022,10.487-14.733,12.93-18.512,3.264-5.049,4.364-6.75,7.621-8.223,5.96-2.693,13.125-1.592,15.031,2.312,2.925,5.991-1.4,12.794-12.842,20.218a22.224,22.224,0,0,0-10.221,20.059c.28,5.13,2.365,9.531,5.188,10.951,2.8,1.409,4.593,1.751,6.18,1.183,2.728-.975,5.3-4.842,9.485-14.269,7.666-17.258,18.729-13.689,20.87-12.8,3.075,1.281,3.824,6.659,4.619,12.354a73.774,73.774,0,0,0,1.3,7.47,30.762,30.762,0,0,0,4.667,9.611c1.329,2.022,2.378,3.619,2.488,5.116.162,2.191-2.1,5.286-5.243,9.57-1.694,2.313-3.614,4.935-5.485,7.869-5.668,8.891-9.318,15.392-8.448,24.393.561,5.8-1.91,11.058-3.9,15.282-1.316,2.8-2.452,5.214-2.249,6.867.181,1.48,1.391,3.661,2.672,5.969,2.494,4.495,5.32,9.588,3.238,13.506-2.707,5.093-13.1,7.031-18.518,5.806a6.909,6.909,0,0,0-6.492,1.7,5.221,5.221,0,0,0-1.514,4.835c1.167,5.1,5.736,10.034,13.58,14.661,10.964,6.468,18.669,13.058,22.9,19.586,4.819,7.428,6.434,12.522,4.938,15.572-.859,1.751-2.712,2.756-5.508,2.989-.211.018-.443.026-.694.026M131.909,412.394c6.306,9.27,9.556,17.785,9.659,25.31.358,26.216,6.105,36.285,16.541,54.563.875,1.533,1.781,3.12,2.717,4.776,12.089,21.38,63.533,38.311,72.2,37.582,2.323-.194,3.831-.964,4.481-2.289,1.267-2.582-.37-7.4-4.864-14.332-4.128-6.363-11.694-12.818-22.488-19.186-8.154-4.811-12.921-10.013-14.168-15.465a6.47,6.47,0,0,1,1.851-6.005,8.166,8.166,0,0,1,7.661-2.034c5.606,1.269,14.917-1.009,17.128-5.169,1.761-3.313-.889-8.089-3.228-12.3-1.4-2.524-2.61-4.7-2.821-6.427-.247-2.014.961-4.582,2.359-7.556,1.92-4.085,4.31-9.168,3.782-14.624-.977-10.108,3.911-17.776,8.639-25.191,1.893-2.969,3.825-5.609,5.53-7.937,2.867-3.913,5.131-7,5-8.732-.087-1.171-1.057-2.648-2.285-4.517a31.815,31.815,0,0,1-4.836-10,74.551,74.551,0,0,1-1.322-7.6c-.71-5.094-1.444-10.361-3.855-11.365-1.95-.811-12.044-4.04-19.234,12.147-4.4,9.911-7.074,13.822-10.212,14.943-1.951.7-4.029.337-7.17-1.244-3.263-1.642-5.57-6.356-5.88-12.008a23.471,23.471,0,0,1,10.794-21.185c10.825-7.022,15-13.283,12.4-18.609-1.6-3.269-8.1-4.1-13.381-1.717-2.919,1.32-3.885,2.813-7.082,7.759-2.453,3.794-6.159,9.528-12.982,18.586-10.377,13.777-24.632,19.349-32.29,22.342l-.278.109a239.057,239.057,0,0,0-12.364,37.377" transform="translate(-94.914 -235.17)"/>
      <path id="Path_5094" data-name="Path 5094" d="M1657.007,646.172a.63.63,0,0,1-.436-.175c-3.7-3.552-7.185-8.947-9.983-13.282l-.834-1.291c-4.89-7.539-.309-16.977,2.429-22.616,2.95-6.076,5.049-18.858.185-27-4.37-7.312-2.595-12.837-1.028-17.712.35-1.089.681-2.118.946-3.156,1.483-5.812-3.039-15.737-8.079-21.6-5.7-6.627-5.2-9.782-2.155-13.606,1.3-1.63.745-4.047.259-6.181-.51-2.24-1.037-4.556,1.047-5.329.714-.267,2.615-.973,10.954,8.308a.63.63,0,0,1,.125.211,222.06,222.06,0,0,1,7.186,122.934.629.629,0,0,1-.614.491m-17.213-130.764c-.95.353-.807,1.45-.257,3.868.522,2.29,1.171,5.141-.5,7.245-2.722,3.424-3.061,5.97,2.124,12,5.362,6.237,9.949,16.445,8.344,22.732-.274,1.076-.627,2.171-.967,3.23-1.557,4.846-3.168,9.856.911,16.68,5.1,8.538,2.937,21.871-.133,28.194-2.621,5.4-7.008,14.438-2.5,21.381l.836,1.294c2.556,3.96,5.69,8.817,8.995,12.254a220.777,220.777,0,0,0-7.353-121c-7.32-8.13-9.19-7.988-9.495-7.876" transform="translate(-1188.829 -373.619)"/>
      <path id="Path_5095" data-name="Path 5095" d="M339.1,443.7a223.223,223.223,0,0,1-218-268.74,220.755,220.755,0,0,1,401.68-73.245,222.291,222.291,0,0,1-1.669,245.171A219.548,219.548,0,0,1,339.1,443.7M335.871,1.367a218.208,218.208,0,0,0-213.541,173.85A221.828,221.828,0,0,0,339.283,442.332a217.106,217.106,0,0,0,118.556-35.088c101.537-65.865,130.2-202.618,63.883-304.845A221.375,221.375,0,0,0,335.871,1.367" transform="translate(-84.527 0)"/>
      <path id="Path_5096" data-name="Path 5096" d="M1224.08,103.776c0,12.605-20.09,42.9-24.9,49.976a1.242,1.242,0,0,1-2.055,0c-3.448-5.069-14.723-22.035-20.85-35.89-2.431-5.5-4.052-10.5-4.052-14.084a25.93,25.93,0,1,1,51.861,0" transform="translate(-851.907 -56.574)"/>
      <path id="Path_5097" data-name="Path 5097" d="M1247.436,141.207a11.857,11.857,0,1,1-11.857-11.857,11.857,11.857,0,0,1,11.857,11.857" transform="translate(-889.337 -94.005)" fill="#fff"/>
      <path id="Path_5098" data-name="Path 5098" d="M352.97,263.99c0,12.606-20.09,42.9-24.9,49.977a1.242,1.242,0,0,1-2.055,0c-3.448-5.069-14.723-22.035-20.851-35.891-2.431-5.5-4.052-10.5-4.052-14.085a25.931,25.931,0,0,1,51.862,0" transform="translate(-218.829 -173.009)"/>
      <path id="Path_5099" data-name="Path 5099" d="M376.328,301.421a11.857,11.857,0,1,1-11.857-11.857,11.857,11.857,0,0,1,11.857,11.857" transform="translate(-256.261 -210.44)" fill="#fff"/>
      <path id="Path_5100" data-name="Path 5100" d="M401.785,526.659a.629.629,0,0,1-.395-1.121q1.483-1.188,2.966-2.352a.63.63,0,0,1,.777.991q-1.477,1.159-2.955,2.344a.63.63,0,0,1-.393.138" transform="translate(-291.538 -380.125)"/>
      <path id="Path_5101" data-name="Path 5101" d="M434.194,367.511a.63.63,0,0,1-.378-1.133c1.994-1.5,4.015-2.975,6.007-4.4a.63.63,0,0,1,.732,1.025c-1.983,1.417-4,2.889-5.984,4.379a.627.627,0,0,1-.377.126m12.093-8.631a.63.63,0,0,1-.354-1.151c2.066-1.4,4.158-2.778,6.217-4.1a.63.63,0,1,1,.679,1.061c-2.05,1.313-4.133,2.685-6.19,4.079a.628.628,0,0,1-.353.108m12.513-8.01a.63.63,0,0,1-.326-1.169c2.135-1.287,4.3-2.551,6.431-3.755a.63.63,0,1,1,.62,1.1c-2.122,1.2-4.275,2.455-6.4,3.736a.627.627,0,0,1-.325.09m12.936-7.305a.63.63,0,0,1-.294-1.187c2.205-1.162,4.443-2.3,6.647-3.377a.63.63,0,1,1,.554,1.132c-2.194,1.073-4.419,2.2-6.614,3.36a.627.627,0,0,1-.293.073m13.359-6.532a.63.63,0,0,1-.26-1.2c2.26-1.02,4.561-2.016,6.837-2.96a.63.63,0,0,1,.482,1.164c-2.265.939-4.553,1.929-6.8,2.944a.621.621,0,0,1-.258.056m13.724-5.688a.63.63,0,0,1-.222-1.219c2.309-.873,4.665-1.721,7-2.522a.63.63,0,1,1,.409,1.192c-2.327.8-4.67,1.64-6.967,2.509a.627.627,0,0,1-.223.041m14.043-4.809a.63.63,0,0,1-.185-1.232c2.341-.721,4.744-1.42,7.141-2.078a.63.63,0,0,1,.333,1.214c-2.385.655-4.775,1.351-7.1,2.069a.634.634,0,0,1-.185.028m14.315-3.929a.63.63,0,0,1-.148-1.242c2.386-.578,4.831-1.132,7.263-1.645a.63.63,0,1,1,.261,1.232c-2.421.511-4.853,1.062-7.227,1.637a.62.62,0,0,1-.149.018m14.535-3.07a.63.63,0,0,1-.112-1.25c2.423-.439,4.894-.852,7.344-1.227a.63.63,0,1,1,.191,1.245c-2.438.373-4.9.784-7.31,1.222a.641.641,0,0,1-.113.01m111.055-1.612a.649.649,0,0,1-.068,0c-2.49-.269-4.975-.522-7.385-.753a.63.63,0,1,1,.121-1.253c2.414.231,4.9.485,7.4.755a.63.63,0,0,1-.067,1.256m-96.37-.642a.63.63,0,0,1-.078-1.255c2.426-.306,4.915-.589,7.4-.84a.63.63,0,0,1,.127,1.253c-2.472.25-4.95.531-7.366.836a.71.71,0,0,1-.08,0m81.576-.776-.053,0c-2.492-.207-4.981-.4-7.4-.567a.628.628,0,0,1-.584-.671.641.641,0,0,1,.672-.585c2.425.17,4.921.361,7.418.569a.63.63,0,0,1-.052,1.257m-66.794-.72a.63.63,0,0,1-.048-1.258c2.461-.19,4.96-.354,7.428-.487a.63.63,0,0,1,.068,1.259c-2.458.132-4.948.3-7.4.484l-.049,0m51.969-.312h-.035c-2.5-.137-4.99-.256-7.412-.353a.629.629,0,0,1-.6-.654.613.613,0,0,1,.654-.6c2.43.1,4.93.216,7.431.354a.63.63,0,0,1-.034,1.258m-37.133-.5a.63.63,0,0,1-.02-1.259c2.466-.082,4.969-.139,7.44-.171h.008a.63.63,0,0,1,.008,1.26c-2.462.031-4.957.089-7.414.17h-.022m22.285-.089h-.015c-2.5-.058-4.991-.094-7.417-.108a.63.63,0,0,1,0-1.26h0c2.434.014,4.937.051,7.44.108a.63.63,0,0,1-.015,1.26" transform="translate(-315.091 -227.848)"/>
      <path id="Path_5102" data-name="Path 5102" d="M1265.175,329.849a.581.581,0,0,1-.078,0q-1.882-.234-3.748-.456a.63.63,0,0,1,.149-1.251q1.869.223,3.754.457a.63.63,0,0,1-.077,1.255" transform="translate(-916.278 -238.47)"/>
      <path id="Path_5103" data-name="Path 5103" d="M69.7,954.887a.629.629,0,0,1-.578-.378c-20.386-46.981-15.314-87.287-15.26-87.689a.63.63,0,0,1,1.248.166c-.053.4-5.072,40.379,15.167,87.021a.629.629,0,0,1-.577.88" transform="translate(-38.709 -629.562)"/>
      <path id="Path_5104" data-name="Path 5104" d="M10.62,842.861a.629.629,0,0,1-.578-.381A141.408,141.408,0,0,1,1.951,812.42c-2.673-16.5-3.929-41.473,5.265-66.766a.63.63,0,0,1,1.183.43c-17.423,47.928,2.594,95.424,2.8,95.9a.63.63,0,0,1-.578.879" transform="translate(0 -541.601)"/>
      <path id="Path_5105" data-name="Path 5105" d="M1805.865,1029.994a.63.63,0,0,1-.594-.84l1.619-4.572a.63.63,0,1,1,1.187.421l-1.619,4.572a.629.629,0,0,1-.593.419" transform="translate(-1311.949 -744.307)"/>
      <path id="Path_5106" data-name="Path 5106" d="M1792.065,1068.974a.63.63,0,0,1-.594-.84l1.619-4.573a.63.63,0,1,1,1.187.42l-1.619,4.573a.629.629,0,0,1-.594.419" transform="translate(-1301.921 -772.635)"/>
      <path id="Path_5107" data-name="Path 5107" d="M1778.642,1045.033a.629.629,0,0,1-.21-.036l-4.572-1.619a.63.63,0,0,1,.421-1.187l4.572,1.619a.63.63,0,0,1-.21,1.223" transform="translate(-1288.842 -757.383)"/>
      <path id="Path_5108" data-name="Path 5108" d="M1817.624,1058.835a.632.632,0,0,1-.21-.036l-4.572-1.619a.63.63,0,0,1,.421-1.187l4.572,1.619a.63.63,0,0,1-.21,1.223" transform="translate(-1317.172 -767.413)"/>
      <path id="Path_5109" data-name="Path 5109" d="M1486.793,73.923h-.041a.63.63,0,0,1-.589-.668l.309-4.858a.64.64,0,0,1,.669-.589.631.631,0,0,1,.589.669l-.309,4.858a.63.63,0,0,1-.628.59" transform="translate(-1080.065 -49.278)"/>
      <path id="Path_5110" data-name="Path 5110" d="M1484.16,115.341h-.041a.63.63,0,0,1-.589-.668l.309-4.859a.63.63,0,0,1,1.257.08l-.309,4.859a.63.63,0,0,1-.628.59" transform="translate(-1078.151 -79.378)"/>
      <path id="Path_5111" data-name="Path 5111" d="M1461.3,97.091h-.041l-4.858-.309a.63.63,0,1,1,.08-1.257l4.858.309a.63.63,0,0,1-.039,1.258" transform="translate(-1058.009 -69.42)"/>
      <path id="Path_5112" data-name="Path 5112" d="M1502.719,99.723h-.041l-4.858-.309a.63.63,0,0,1-.589-.669.638.638,0,0,1,.669-.589l4.858.309a.63.63,0,0,1-.039,1.258" transform="translate(-1088.108 -71.334)"/>
      <path id="Path_5113" data-name="Path 5113" d="M1545.487,179.95a4.829,4.829,0,0,1-2.036-.453,4.924,4.924,0,0,1-2.576-2.835,5.053,5.053,0,0,1,2.934-6.425,4.808,4.808,0,0,1,3.742.142,4.926,4.926,0,0,1,2.577,2.835,5.052,5.052,0,0,1-2.934,6.425,4.862,4.862,0,0,1-1.706.312m-1.238-8.534a3.789,3.789,0,0,0-2.189,4.821,3.676,3.676,0,0,0,1.92,2.117,3.564,3.564,0,0,0,2.771.1,3.788,3.788,0,0,0,2.19-4.82,3.674,3.674,0,0,0-1.921-2.117,3.566,3.566,0,0,0-2.771-.1" transform="translate(-1119.61 -123.492)"/>
      <rect id="Rectangle_1757" data-name="Rectangle 1757" width="130.248" height="117.66" transform="translate(143.013 352.539)" fill="#fff"/>
      <path id="Path_5114" data-name="Path 5114" d="M651.944,1406.771H521.7a.63.63,0,0,1-.63-.63V1288.481a.629.629,0,0,1,.63-.63H651.944a.629.629,0,0,1,.63.63v117.661a.629.629,0,0,1-.63.63m-129.618-1.26H651.315v-116.4H522.327Z" transform="translate(-378.684 -935.942)"/>
      <path id="Path_5115" data-name="Path 5115" d="M556.743,1559.937a.63.63,0,0,1-.63-.626L556,1540.045a.629.629,0,0,1,.626-.633l21.4-.123h0a.63.63,0,0,1,.63.626l.111,19.265a.63.63,0,0,1-.626.634l-21.4.124Zm.523-19.269.1,18.006,20.142-.116-.1-18.005Z" transform="translate(-404.073 -1118.674)"/>
      <path id="Path_5116" data-name="Path 5116" d="M556.155,1458.208a.63.63,0,0,1-.63-.626l-.111-19.265a.63.63,0,0,1,.626-.633l21.4-.123h0a.63.63,0,0,1,.63.626l.111,19.265a.63.63,0,0,1-.626.634l-21.4.123Zm.522-19.269.1,18.006,20.142-.116-.1-18.005Z" transform="translate(-403.646 -1044.743)"/>
      <path id="Path_5117" data-name="Path 5117" d="M555.57,1356.479a.63.63,0,0,1-.63-.626l-.111-19.266a.63.63,0,0,1,.626-.633l21.4-.123h0a.63.63,0,0,1,.63.626l.112,19.266a.63.63,0,0,1-.626.633l-21.4.123Zm.522-19.269.1,18.006,20.142-.115-.1-18.006Z" transform="translate(-403.22 -970.812)"/>
      <rect id="Rectangle_1758" data-name="Rectangle 1758" width="80.157" height="224.581" transform="translate(369.895 245.618)" fill="#fff"/>
      <path id="Path_5118" data-name="Path 5118" d="M1432.155,1122.4H1352a.629.629,0,0,1-.629-.63V897.193a.629.629,0,0,1,.629-.63h80.157a.63.63,0,0,1,.63.63v224.581a.629.629,0,0,1-.63.63m-79.527-1.26h78.9V897.823h-78.9Z" transform="translate(-982.104 -651.575)"/>
      <path id="Path_5119" data-name="Path 5119" d="M1591.224,939.954h-11.572a.629.629,0,0,1-.63-.63V927.752a.63.63,0,0,1,.63-.63h11.572a.63.63,0,0,1,.63.63v11.572a.629.629,0,0,1-.63.63m-10.942-1.26h10.312V928.382h-10.312Z" transform="translate(-1147.55 -673.783)"/>
      <path id="Path_5120" data-name="Path 5120" d="M1591.224,1003.63h-11.572a.63.63,0,0,1-.63-.63V991.429a.63.63,0,0,1,.63-.63h11.572a.63.63,0,0,1,.63.63V1003a.63.63,0,0,1-.63.63m-10.942-1.259h10.312V992.059h-10.312Z" transform="translate(-1147.55 -720.06)"/>
      <path id="Path_5121" data-name="Path 5121" d="M1591.224,1067.307h-11.572a.629.629,0,0,1-.63-.63v-11.571a.63.63,0,0,1,.63-.63h11.572a.63.63,0,0,1,.63.63v11.571a.629.629,0,0,1-.63.63m-10.942-1.259h10.312v-10.312h-10.312Z" transform="translate(-1147.55 -766.338)"/>
      <path id="Path_5122" data-name="Path 5122" d="M1591.224,1130.982h-11.572a.629.629,0,0,1-.63-.63v-11.572a.629.629,0,0,1,.63-.63h11.572a.629.629,0,0,1,.63.63v11.572a.629.629,0,0,1-.63.63m-10.942-1.259h10.312v-10.312h-10.312Z" transform="translate(-1147.55 -812.613)"/>
      <path id="Path_5123" data-name="Path 5123" d="M1591.224,1194.659h-11.572a.63.63,0,0,1-.63-.63v-11.571a.63.63,0,0,1,.63-.63h11.572a.63.63,0,0,1,.63.63v11.571a.63.63,0,0,1-.63.63m-10.942-1.26h10.312v-10.312h-10.312Z" transform="translate(-1147.55 -858.89)"/>
      <path id="Path_5124" data-name="Path 5124" d="M1591.224,1258.336h-11.572a.629.629,0,0,1-.63-.63v-11.571a.629.629,0,0,1,.63-.63h11.572a.629.629,0,0,1,.63.63v11.571a.629.629,0,0,1-.63.63m-10.942-1.26h10.312v-10.312h-10.312Z" transform="translate(-1147.55 -905.167)"/>
      <rect id="Rectangle_1759" data-name="Rectangle 1759" width="11.571" height="11.571" transform="translate(432.102 358.367)" fill="#fff"/>
      <rect id="Rectangle_1760" data-name="Rectangle 1760" width="11.571" height="11.571" transform="translate(432.102 375.767)" fill="#fff"/>
      <rect id="Rectangle_1761" data-name="Rectangle 1761" width="11.571" height="11.571" transform="translate(432.102 393.166)" fill="#fff"/>
      <rect id="Rectangle_1762" data-name="Rectangle 1762" width="11.571" height="11.571" transform="translate(432.102 410.566)" fill="#fff"/>
      <rect id="Rectangle_1763" data-name="Rectangle 1763" width="11.571" height="11.571" transform="translate(432.102 427.966)" fill="#fff"/>
      <rect id="Rectangle_1764" data-name="Rectangle 1764" width="17.076" height="60.814" transform="translate(402.828 209.432)" fill="#fff"/>
      <path id="Path_5125" data-name="Path 5125" d="M1489.6,826.207h-17.076a.629.629,0,0,1-.63-.63V764.764a.629.629,0,0,1,.63-.63H1489.6a.629.629,0,0,1,.63.63v60.814a.629.629,0,0,1-.63.63m-16.447-1.26h15.817V765.393h-15.817Z" transform="translate(-1069.693 -555.332)"/>
      <rect id="Rectangle_1765" data-name="Rectangle 1765" width="111.607" height="264.716" transform="translate(238.619 205.483)" fill="#fff"/>
      <path id="Path_5126" data-name="Path 5126" d="M983.187,1015.66H871.58a.629.629,0,0,1-.63-.63V750.314a.629.629,0,0,1,.63-.63H983.187a.63.63,0,0,1,.63.63V1015.03a.63.63,0,0,1-.63.63m-110.977-1.26H982.557V750.943H872.209Z" transform="translate(-632.961 -544.831)"/>
      <path id="Path_5127" data-name="Path 5127" d="M957.8,860.661H942.556a.63.63,0,0,1-.63-.63V837.109a.629.629,0,0,1,.63-.63H957.8a.629.629,0,0,1,.63.63v22.923a.629.629,0,0,1-.63.63M943.186,859.4h13.987V837.739H943.186Z" transform="translate(-684.542 -607.909)"/>
      <path id="Path_5128" data-name="Path 5128" d="M1061.586,860.661H1046.34a.629.629,0,0,1-.63-.63V837.109a.629.629,0,0,1,.63-.63h15.246a.63.63,0,0,1,.63.63v22.923a.63.63,0,0,1-.63.63m-14.617-1.259h13.987V837.739h-13.987Z" transform="translate(-759.967 -607.909)"/>
      <path id="Path_5129" data-name="Path 5129" d="M1165.368,860.661h-15.247a.629.629,0,0,1-.63-.63V837.109a.629.629,0,0,1,.63-.63h15.247a.629.629,0,0,1,.63.63v22.923a.629.629,0,0,1-.63.63m-14.617-1.259h13.988V837.739h-13.988Z" transform="translate(-835.389 -607.909)"/>
      <path id="Path_5130" data-name="Path 5130" d="M957.8,953.431H942.556a.63.63,0,0,1-.63-.63v-7.427a.63.63,0,0,1,.63-.63H957.8a.629.629,0,0,1,.63.63V952.8a.629.629,0,0,1-.63.63m-14.617-1.259h13.987V946H943.186Z" transform="translate(-684.542 -686.59)"/>
      <path id="Path_5131" data-name="Path 5131" d="M1061.586,953.431H1046.34a.629.629,0,0,1-.63-.63v-7.427a.629.629,0,0,1,.63-.63h15.246a.63.63,0,0,1,.63.63V952.8a.63.63,0,0,1-.63.63m-14.617-1.259h13.987V946h-13.987Z" transform="translate(-759.967 -686.59)"/>
      <path id="Path_5132" data-name="Path 5132" d="M1165.368,953.431h-15.247a.629.629,0,0,1-.63-.63v-7.427a.629.629,0,0,1,.63-.63h15.247a.629.629,0,0,1,.63.63V952.8a.629.629,0,0,1-.63.63m-14.617-1.259h13.988V946h-13.988Z" transform="translate(-835.389 -686.59)"/>
      <path id="Path_5133" data-name="Path 5133" d="M957.8,1059.692H942.556a.629.629,0,0,1-.63-.63v-22.923a.63.63,0,0,1,.63-.63H957.8a.629.629,0,0,1,.63.63v22.923a.629.629,0,0,1-.63.63m-14.617-1.26h13.987v-21.664H943.186Z" transform="translate(-684.542 -752.553)"/>
      <path id="Path_5134" data-name="Path 5134" d="M1061.586,1059.692H1046.34a.629.629,0,0,1-.63-.63v-22.923a.629.629,0,0,1,.63-.63h15.246a.63.63,0,0,1,.63.63v22.923a.63.63,0,0,1-.63.63m-14.617-1.26h13.987v-21.664h-13.987Z" transform="translate(-759.967 -752.553)"/>
      <path id="Path_5135" data-name="Path 5135" d="M1165.368,1059.692h-15.247a.629.629,0,0,1-.63-.63v-22.923a.629.629,0,0,1,.63-.63h15.247a.629.629,0,0,1,.63.63v22.923a.629.629,0,0,1-.63.63m-14.617-1.26h13.988v-21.664h-13.988Z" transform="translate(-835.389 -752.553)"/>
      <path id="Path_5136" data-name="Path 5136" d="M957.8,1152.463H942.556a.63.63,0,0,1-.63-.63v-7.427a.629.629,0,0,1,.63-.63H957.8a.629.629,0,0,1,.63.63v7.427a.629.629,0,0,1-.63.63m-14.617-1.259h13.987v-6.168H943.186Z" transform="translate(-684.542 -831.236)"/>
      <path id="Path_5137" data-name="Path 5137" d="M1061.586,1152.463H1046.34a.629.629,0,0,1-.63-.63v-7.427a.629.629,0,0,1,.63-.63h15.246a.63.63,0,0,1,.63.63v7.427a.63.63,0,0,1-.63.63m-14.617-1.259h13.987v-6.168h-13.987Z" transform="translate(-759.967 -831.236)"/>
      <path id="Path_5138" data-name="Path 5138" d="M1165.368,1152.463h-15.247a.629.629,0,0,1-.63-.63v-7.427a.629.629,0,0,1,.63-.63h15.247a.629.629,0,0,1,.63.63v7.427a.629.629,0,0,1-.63.63m-14.617-1.259h13.988v-6.168h-13.988Z" transform="translate(-835.389 -831.236)"/>
      <path id="Path_5139" data-name="Path 5139" d="M996.553,1001.091H902.937a.63.63,0,0,1,0-1.26h93.616a.63.63,0,0,1,0,1.26" transform="translate(-655.749 -726.624)"/>
      <path id="Path_5140" data-name="Path 5140" d="M957.8,1274.09H942.556a.629.629,0,0,1-.63-.63v-22.923a.63.63,0,0,1,.63-.63H957.8a.629.629,0,0,1,.63.63v22.923a.629.629,0,0,1-.63.63m-14.617-1.26h13.987v-21.663H943.186Z" transform="translate(-684.542 -908.367)"/>
      <path id="Path_5141" data-name="Path 5141" d="M1061.586,1274.09H1046.34a.629.629,0,0,1-.63-.63v-22.923a.629.629,0,0,1,.63-.63h15.246a.63.63,0,0,1,.63.63v22.923a.63.63,0,0,1-.63.63m-14.617-1.26h13.987v-21.663h-13.987Z" transform="translate(-759.967 -908.367)"/>
      <path id="Path_5142" data-name="Path 5142" d="M1165.368,1274.09h-15.247a.629.629,0,0,1-.63-.63v-22.923a.629.629,0,0,1,.63-.63h15.247a.629.629,0,0,1,.63.63v22.923a.629.629,0,0,1-.63.63m-14.617-1.26h13.988v-21.663h-13.988Z" transform="translate(-835.389 -908.367)"/>
      <path id="Path_5143" data-name="Path 5143" d="M957.8,1366.859H942.556a.629.629,0,0,1-.63-.63V1358.8a.629.629,0,0,1,.63-.63H957.8a.629.629,0,0,1,.63.63v7.428a.629.629,0,0,1-.63.63m-14.617-1.26h13.987v-6.168H943.186Z" transform="translate(-684.542 -987.048)"/>
      <path id="Path_5144" data-name="Path 5144" d="M1061.586,1366.859H1046.34a.629.629,0,0,1-.63-.63V1358.8a.629.629,0,0,1,.63-.63h15.246a.63.63,0,0,1,.63.63v7.428a.63.63,0,0,1-.63.63m-14.617-1.26h13.987v-6.168h-13.987Z" transform="translate(-759.967 -987.048)"/>
      <path id="Path_5145" data-name="Path 5145" d="M1165.368,1366.859h-15.247a.629.629,0,0,1-.63-.63V1358.8a.629.629,0,0,1,.63-.63h15.247a.629.629,0,0,1,.63.63v7.428a.629.629,0,0,1-.63.63m-14.617-1.26h13.988v-6.168h-13.988Z" transform="translate(-835.389 -987.048)"/>
      <path id="Path_5146" data-name="Path 5146" d="M996.553,1215.49H902.937a.63.63,0,1,1,0-1.26h93.616a.63.63,0,1,1,0,1.26" transform="translate(-655.749 -882.438)"/>
      <rect id="Rectangle_1766" data-name="Rectangle 1766" width="15.247" height="22.923" transform="translate(258.013 400.755)" fill="#fff"/>
      <rect id="Rectangle_1767" data-name="Rectangle 1767" width="15.247" height="22.923" transform="translate(286.372 400.755)" fill="#fff"/>
      <rect id="Rectangle_1768" data-name="Rectangle 1768" width="15.247" height="22.923" transform="translate(314.732 400.755)" fill="#fff"/>
      <rect id="Rectangle_1769" data-name="Rectangle 1769" width="15.247" height="7.427" transform="translate(258.013 430.339)" fill="#fff"/>
      <rect id="Rectangle_1770" data-name="Rectangle 1770" width="15.247" height="7.427" transform="translate(286.372 430.339)" fill="#fff"/>
      <rect id="Rectangle_1771" data-name="Rectangle 1771" width="15.247" height="7.427" transform="translate(314.732 430.339)" fill="#fff"/>
      <path id="Path_5147" data-name="Path 5147" d="M996.553,1429.886H902.937a.63.63,0,1,1,0-1.26h93.616a.63.63,0,1,1,0,1.26" transform="translate(-655.749 -1038.25)" fill="#fff"/>
      <rect id="Rectangle_1772" data-name="Rectangle 1772" width="89.466" height="112.291" transform="translate(419.904 358.536)" fill="#fff"/>
      <path id="Path_5148" data-name="Path 5148" d="M1624.48,1423.351h-89.466a.63.63,0,0,1-.63-.63V1310.431a.63.63,0,0,1,.63-.63h89.466a.629.629,0,0,1,.63.63v112.291a.629.629,0,0,1-.63.63m-88.836-1.26h88.206V1311.06h-88.206Z" transform="translate(-1115.109 -951.894)"/>
      <rect id="Rectangle_1773" data-name="Rectangle 1773" width="31.494" height="149.602" transform="translate(463.7 321.225)" fill="#fff"/>
      <path id="Path_5149" data-name="Path 5149" d="M1726.782,1324.117h-31.495a.63.63,0,0,1-.63-.63v-149.6a.629.629,0,0,1,.63-.63h31.495a.63.63,0,0,1,.63.63v149.6a.63.63,0,0,1-.63.63m-30.865-1.26h30.235V1174.514h-30.235Z" transform="translate(-1231.588 -852.66)"/>
      <path id="Path_5150" data-name="Path 5150" d="M1743.68,1410.482h-11.133a.629.629,0,0,1-.63-.63V1398.72a.63.63,0,0,1,.63-.63h11.133a.63.63,0,0,1,.63.63v11.133a.629.629,0,0,1-.63.63m-10.5-1.259h9.873v-9.873h-9.873Z" transform="translate(-1258.667 -1016.058)"/>
      <path id="Path_5151" data-name="Path 5151" d="M1743.68,1354.12h-11.133a.629.629,0,0,1-.63-.63v-11.133a.629.629,0,0,1,.63-.63h11.133a.629.629,0,0,1,.63.63v11.133a.629.629,0,0,1-.63.63m-10.5-1.259h9.873v-9.873h-9.873Z" transform="translate(-1258.667 -975.097)"/>
      <rect id="Rectangle_1774" data-name="Rectangle 1774" width="79.274" height="175.152" transform="translate(321.542 295.047)" fill="#fff"/>
      <path id="Path_5152" data-name="Path 5152" d="M1254.32,1253.866h-79.274a.629.629,0,0,1-.63-.63V1078.084a.629.629,0,0,1,.63-.63h79.274a.629.629,0,0,1,.63.63v175.152a.63.63,0,0,1-.63.63m-78.644-1.26h78.014V1078.714h-78.014Z" transform="translate(-853.504 -783.037)"/>
      <rect id="Rectangle_1775" data-name="Rectangle 1775" width="12.807" height="193.045" transform="translate(363.614 277.154)" fill="#fff"/>
      <path id="Path_5153" data-name="Path 5153" d="M1341.818,1206.277h-12.807a.63.63,0,0,1-.63-.63V1012.6a.63.63,0,0,1,.63-.63h12.807a.63.63,0,0,1,.63.63v193.045a.63.63,0,0,1-.63.63m-12.177-1.26h11.548V1013.232h-11.548Z" transform="translate(-965.397 -735.448)"/>
      <rect id="Rectangle_1776" data-name="Rectangle 1776" width="31.713" height="19.595" transform="translate(376.421 306.55)" fill="#fff"/>
      <path id="Path_5154" data-name="Path 5154" d="M1407.6,1140.4h-31.714a.629.629,0,0,1-.63-.63v-19.595a.629.629,0,0,1,.63-.63H1407.6a.63.63,0,0,1,.63.63v19.595a.629.629,0,0,1-.63.63m-31.084-1.259h30.454v-18.335h-30.454Z" transform="translate(-999.461 -813.629)"/>
      <rect id="Rectangle_1777" data-name="Rectangle 1777" width="31.713" height="19.595" transform="translate(376.421 333.264)" fill="#fff"/>
      <path id="Path_5155" data-name="Path 5155" d="M1407.6,1238.168h-31.714a.629.629,0,0,1-.63-.63v-19.594a.629.629,0,0,1,.63-.63H1407.6a.63.63,0,0,1,.63.63v19.594a.63.63,0,0,1-.63.63m-31.084-1.259h30.454v-18.335h-30.454Z" transform="translate(-999.461 -884.68)"/>
      <rect id="Rectangle_1778" data-name="Rectangle 1778" width="31.713" height="19.595" transform="translate(376.421 359.978)" fill="#fff"/>
      <path id="Path_5156" data-name="Path 5156" d="M1407.6,1335.933h-31.714a.629.629,0,0,1-.63-.63v-19.594a.629.629,0,0,1,.63-.63H1407.6a.63.63,0,0,1,.63.63V1335.3a.63.63,0,0,1-.63.63m-31.084-1.259h30.454v-18.335h-30.454Z" transform="translate(-999.461 -955.73)"/>
      <rect id="Rectangle_1779" data-name="Rectangle 1779" width="31.713" height="19.595" transform="translate(376.421 386.693)" fill="#fff"/>
      <path id="Path_5157" data-name="Path 5157" d="M1407.6,1433.7h-31.714a.629.629,0,0,1-.63-.629v-19.595a.629.629,0,0,1,.63-.63H1407.6a.63.63,0,0,1,.63.63v19.595a.629.629,0,0,1-.63.629m-31.084-1.259h30.454V1414.1h-30.454Z" transform="translate(-999.461 -1026.779)"/>
      <rect id="Rectangle_1780" data-name="Rectangle 1780" width="31.713" height="19.595" transform="translate(376.421 413.407)" fill="#fff"/>
      <path id="Path_5158" data-name="Path 5158" d="M1407.6,1531.461h-31.714a.629.629,0,0,1-.63-.63v-19.594a.629.629,0,0,1,.63-.63H1407.6a.63.63,0,0,1,.63.63v19.594a.63.63,0,0,1-.63.63m-31.084-1.26h30.454v-18.335h-30.454Z" transform="translate(-999.461 -1097.83)"/>
      <rect id="Rectangle_1781" data-name="Rectangle 1781" width="31.713" height="19.595" transform="translate(376.421 440.121)" fill="#fff"/>
      <path id="Path_5159" data-name="Path 5159" d="M1407.6,1629.226h-31.714a.629.629,0,0,1-.63-.63V1609a.629.629,0,0,1,.63-.63H1407.6a.63.63,0,0,1,.63.63V1628.6a.63.63,0,0,1-.63.63m-31.084-1.259h30.454v-18.335h-30.454Z" transform="translate(-999.461 -1168.88)"/>
      <path id="Path_5160" data-name="Path 5160" d="M652.975,1683.524,651.11,1696.8l-9.047.741.553-15.8Z" transform="translate(-466.618 -1222.201)" fill="#fff"/>
      <path id="Path_5161" data-name="Path 5161" d="M640.389,1696.5a.629.629,0,0,1-.629-.652l.553-15.8a.63.63,0,0,1,.736-.6l10.359,1.782a.63.63,0,0,1,.517.708l-1.865,13.276a.63.63,0,0,1-.572.541l-9.047.74-.052,0m1.157-15.686-.5,14.371,7.839-.642,1.711-12.172Z" transform="translate(-464.943 -1220.528)"/>
      <path id="Path_5162" data-name="Path 5162" d="M631.155,1745.845a62.978,62.978,0,0,0,17.132-.48,4.03,4.03,0,0,0,3.244-5.038c-1.771-6.426-4.854-18.628-9.72-24.187l-1.084,3.118-1.7-2.86a1.431,1.431,0,0,0-1.09-.694l-2.525-.115a1.431,1.431,0,0,0-1.548,1.169l-.489,2.692-2.839-3.7-.733,10.394a93.725,93.725,0,0,1-1.223,9.855l-.969,5.435a4.02,4.02,0,0,0,3.539,4.416" transform="translate(-456.102 -1246.794)" fill="#fff"/>
      <path id="Path_5163" data-name="Path 5163" d="M636.253,1745.168a61.48,61.48,0,0,1-6.845-.375,4.664,4.664,0,0,1-4.095-5.108l.976-5.48a93.623,93.623,0,0,0,1.214-9.789l.733-10.395a.63.63,0,0,1,1.128-.339l1.973,2.575.234-1.293a2.062,2.062,0,0,1,2.231-1.683l2.49.112a2.084,2.084,0,0,1,1.6,1l1,1.695.639-1.837a.629.629,0,0,1,1.069-.208c4.629,5.289,7.661,16.4,9.472,23.043l.381,1.392a4.644,4.644,0,0,1-.562,3.727,4.7,4.7,0,0,1-3.186,2.1,63.837,63.837,0,0,1-10.462.86m-6.877-29.4-.616,8.736a94.736,94.736,0,0,1-1.23,9.922l-.969,5.434a3.392,3.392,0,0,0,2.989,3.679,62.083,62.083,0,0,0,16.959-.475,3.438,3.438,0,0,0,2.331-1.535,3.338,3.338,0,0,0,.41-2.714l-.382-1.395c-1.687-6.187-4.452-16.321-8.507-21.686l-.713,2.05a.63.63,0,0,1-1.137.115l-1.7-2.86a.806.806,0,0,0-.611-.389l-2.49-.112a.813.813,0,0,0-.9.652l-.489,2.692a.63.63,0,0,1-1.12.271Z" transform="translate(-454.427 -1245.116)"/>
      <path id="Path_5164" data-name="Path 5164" d="M646.434,1807.774a44.051,44.051,0,0,1-10-1.131.63.63,0,0,1,.312-1.22c.093.024,9.385,2.347,18.127.1a.63.63,0,0,1,.314,1.22,35.389,35.389,0,0,1-8.75,1.033" transform="translate(-462.18 -1312.071)"/>
      <path id="Path_5165" data-name="Path 5165" d="M661.161,1774.069h0l-8.455-.045a.63.63,0,0,1,0-1.26h0l8.455.045a.63.63,0,0,1,0,1.26" transform="translate(-473.895 -1288.352)"/>
      <path id="Path_5166" data-name="Path 5166" d="M494.234,1655.715l-2.031,19.4-10.841-.379.177-19.463Z" transform="translate(-349.829 -1202.963)" fill="#fff"/>
      <path id="Path_5167" data-name="Path 5167" d="M490.528,1674.065H490.5l-10.841-.379a.629.629,0,0,1-.608-.635l.177-19.463a.63.63,0,0,1,.652-.624l12.7.445a.629.629,0,0,1,.6.7l-2.031,19.4a.629.629,0,0,1-.625.564m-10.207-1.617,9.641.337,1.9-18.142-11.375-.4Z" transform="translate(-348.153 -1201.286)"/>
      <path id="Path_5168" data-name="Path 5168" d="M418.108,1714.535a3.916,3.916,0,0,1-3.157,3.766c-6.283,1.233-20.436,3.971-24.462,4.427-5.225.592-12.8-1.51-14.2-4.36-1.808-3.679,6.51-10.084,10.825-12.578,6.409-3.7,12.707-11.248,15.245-11.509s7,7.235,7,7.235l7.823-2.968a95.5,95.5,0,0,1,.924,15.988" transform="translate(-273.285 -1231.31)" fill="#fff"/>
      <path id="Path_5169" data-name="Path 5169" d="M386.91,1721.784c-5.133,0-11.445-1.937-12.858-4.813-2.188-4.451,7.507-11.339,11.075-13.4a59.194,59.194,0,0,0,8.952-6.954c2.943-2.6,5.07-4.484,6.543-4.635,2.572-.266,6.133,5.146,7.33,7.086l7.333-2.782a.63.63,0,0,1,.845.484,97.248,97.248,0,0,1,.933,16.1,4.57,4.57,0,0,1-3.666,4.371c-6.015,1.18-20.445,3.974-24.513,4.434a17.684,17.684,0,0,1-1.974.105m13.922-28.555a.71.71,0,0,0-.081,0c-1.071.11-3.386,2.157-5.837,4.326a60.122,60.122,0,0,1-9.157,7.1c-5.2,3.008-11.965,8.925-10.574,11.755,1.207,2.457,8.434,4.593,13.561,4.012,4.023-.456,18.412-3.242,24.412-4.419a3.3,3.3,0,0,0,2.648-3.161,100.266,100.266,0,0,0-.8-15.109l-7.091,2.69a.628.628,0,0,1-.764-.266c-1.736-2.915-4.807-6.934-6.312-6.934" transform="translate(-271.61 -1229.635)"/>
      <path id="Path_5170" data-name="Path 5170" d="M397.042,1768.89c-4.272,0-7.738-.66-9.128-2.494a.63.63,0,1,1,1-.76c3.531,4.658,26.289-.04,34.759-2.243a.63.63,0,0,1,.317,1.219c-2.249.586-16.851,4.279-26.953,4.279" transform="translate(-281.823 -1281.527)"/>
      <path id="Path_5171" data-name="Path 5171" d="M449.406,1729.37a.629.629,0,0,1-.438-.177l-5.34-5.167a.63.63,0,1,1,.876-.905l5.34,5.167a.63.63,0,0,1-.438,1.082" transform="translate(-322.266 -1252.145)"/>
      <path id="Path_5172" data-name="Path 5172" d="M521.192,1118.234s2.5,79.7,3.525,100.75c.823,16.927-3.576,41.927-5.329,51.064a3.956,3.956,0,0,1-4.232,3.2l-9.537-.836a3.955,3.955,0,0,1-3.611-3.958c.037-7.966.086-27.244-.214-39.895a50.339,50.339,0,0,0-2.763-15.359c-2.035-5.847-4.772-14.817-5.74-23.123-1.613-13.844-7.988-35.844-7.988-35.844s-8.324,94-10.159,113.774a3.339,3.339,0,0,1-3.467,3.027c-3.519-.144-8.342.448-11.938-.969a3.339,3.339,0,0,1-2.078-2.564c-1.274-7.73-7.269-41.877-5.554-60.772,1.951-21.5,3.428-92.912,3.428-92.912Z" transform="translate(-328.344 -809.462)"/>
      <path id="Path_5173" data-name="Path 5173" d="M557.42,845.748S532,853.182,509.1,854.157c-13.522.575-22.585-3.435-22.585-3.435l12.9-104.605s.707-8.2,15.059-12.012c7.707-2.047,13.555,6.852,13.555,6.852Z" transform="translate(-353.575 -533.286)" fill="#fff"/>
      <path id="Path_5174" data-name="Path 5174" d="M504.74,853.157c-11.99,0-19.8-3.391-20.152-3.547a.628.628,0,0,1-.37-.653l12.9-104.6c.028-.33.911-8.664,15.522-12.544,8.054-2.137,13.994,6.736,14.243,7.115a.611.611,0,0,1,.08.175L556.352,843.89a.63.63,0,0,1-.43.775c-.254.074-25.755,7.468-48.467,8.434q-1.39.059-2.716.058m-19.213-4.524A56.228,56.228,0,0,0,507.4,851.84c20.631-.878,43.6-7.1,47.569-8.215L525.778,739.539c-.588-.845-6.014-8.324-12.814-6.513-13.765,3.656-14.587,11.38-14.594,11.457Z" transform="translate(-351.901 -531.599)"/>
      <path id="Path_5175" data-name="Path 5175" d="M421.91,748.582c6.431-9.217,16.745-12,28.8-12.736a15.592,15.592,0,0,1,11.736,4.522c6.155,2.369,15.326,6.634,18.417,11.945,2.836,4.874,16.427,19.938,19.849,17.892,9.776-5.845,28.978-.185,18.854,14.539-10.186,14.815-28.287,10.006-38.448,6.323.551,2.018,1.143,4.037,1.764,5.941,3.215,9.861,6.01,66.82,6.01,66.82-4.287,3-14.849,9.192-14.849,9.192-8.613-39.986-4.949-43.132-6.717-68.234-1.481-21.031-4.991-25.123-8.156-47.912-.478-3.442.192-8.523-3.117-15.406-1.194-2.484-23.018,5.706-24.6,7.908-6.716,9.344.97,37.216.537,49.8a356.315,356.315,0,0,1-4.119,42.628c-1.9,9.546-1.214,26.469-1.214,26.469-8.374.392-13.659-2.481-17.405-5.982a9.345,9.345,0,0,1-2.593-9.184l1.222-4.694a45.131,45.131,0,0,0,1.461-11.284c0-2.315.086-5.315.354-8.8.643-8.36,3.868-18.5,3.868-18.5s-2.62,3.089-11.409,6.519-11.966-11.22-13.01-22.263c-3.419-36.17,32.769-45.5,32.769-45.5" transform="translate(-282.641 -534.753)" fill="#fff"/>
      <path id="Path_5176" data-name="Path 5176" d="M472.373,871.974a.631.631,0,0,1-.616-.5c-6-27.839-6.057-38.032-6.127-49.836-.032-5.33-.065-10.842-.6-18.487a145.864,145.864,0,0,0-3.977-25.609c-1.3-5.735-2.782-12.236-4.174-22.261-.119-.856-.169-1.815-.222-2.83a29.525,29.525,0,0,0-2.839-12.388,2.165,2.165,0,0,0-.835-.109,8.492,8.492,0,0,0-.921.057c-6.086.674-20.7,6.565-21.767,8.053-4.3,5.981-2.454,20.145-.826,32.642.838,6.428,1.629,12.5,1.48,16.807a356.783,356.783,0,0,1-4.13,42.729c-1.859,9.365-1.209,26.152-1.2,26.321a.63.63,0,0,1-.6.654c-7.228.335-13.073-1.674-17.865-6.151a9.95,9.95,0,0,1-2.772-9.8l1.221-4.694a44.552,44.552,0,0,0,1.441-11.127c.005-2.868.125-5.845.356-8.846a92.882,92.882,0,0,1,3.276-16.557,42.076,42.076,0,0,1-9.961,5.208,6.338,6.338,0,0,1-5.894-.36c-5.135-3.165-7.169-13.944-7.971-22.43-1.794-18.965,7.35-30.514,15.337-36.863a53.532,53.532,0,0,1,17.675-9.24c7.263-10.225,19.378-12.222,29.141-12.816a16.167,16.167,0,0,1,12.111,4.605c6.819,2.635,15.54,6.874,18.625,12.174,2.433,4.181,13.336,16.488,17.987,17.688a1.426,1.426,0,0,0,1-.021c6.3-3.768,16.031-2.951,20.408,1.713,1.88,2,4.289,6.451-.712,13.724-7.53,10.953-19.979,13.237-38.037,6.965.483,1.718.964,3.311,1.432,4.747,3.2,9.829,5.927,64.656,6.041,66.985a.629.629,0,0,1-.268.547c-4.258,2.981-14.785,9.157-14.891,9.219a.624.624,0,0,1-.319.087M452.991,738.7c.162,0,.312.006.451.018a1.685,1.685,0,0,1,1.509.8,31.016,31.016,0,0,1,2.962,12.87c.054,1.03.1,1.92.212,2.723,1.385,9.972,2.856,16.445,4.155,22.155a146.98,146.98,0,0,1,4.005,25.8c.541,7.686.574,13.218.606,18.568.07,11.612.129,21.655,5.916,48.724,2.424-1.431,10.087-5.988,13.77-8.524-.242-4.8-2.94-57.037-5.963-66.307-.579-1.776-1.175-3.784-1.773-5.97a.63.63,0,0,1,.823-.758c18.061,6.547,30.4,4.554,37.714-6.088,3.384-4.922,3.672-9.123.831-12.149-3.942-4.2-13.1-4.927-18.843-1.493a2.509,2.509,0,0,1-1.956.159c-5.016-1.294-16.184-13.847-18.76-18.274-3.071-5.277-12.658-9.58-18.1-11.675a.628.628,0,0,1-.2-.123,14.979,14.979,0,0,0-11.272-4.358c-14.361.874-22.83,4.6-28.317,12.468a.634.634,0,0,1-.359.25,52.788,52.788,0,0,0-17.467,9.094c-11.237,8.951-16.228,20.973-14.833,35.732,1.1,11.592,3.716,19.219,7.378,21.476a5.076,5.076,0,0,0,4.776.259c8.481-3.31,11.133-6.312,11.159-6.342a.63.63,0,0,1,1.079.6c-.032.1-3.21,10.173-3.84,18.362-.229,2.969-.347,5.914-.352,8.751a45.827,45.827,0,0,1-1.482,11.442l-1.221,4.694a8.694,8.694,0,0,0,2.413,8.566c4.393,4.1,9.731,6.027,16.325,5.836-.1-3.171-.433-17.521,1.247-25.985a355.523,355.523,0,0,0,4.107-42.528c.145-4.2-.64-10.226-1.471-16.6-1.659-12.728-3.538-27.154,1.051-33.54,1.585-2.2,18.423-8.633,23.72-8.633m-32.747,8.206h0Z" transform="translate(-280.975 -533.077)"/>
      <path id="Path_5177" data-name="Path 5177" d="M463.782,829.487c2.028-24.51,7.073-53.766,12.05-65.226-6.608-1.181-14.615,4.792-17.027,10.74-3.21,9.625,1.08,32.4,4.977,54.486" transform="translate(-332.618 -555.315)"/>
      <path id="Path_5178" data-name="Path 5178" d="M687.457,805.745c-.1-16.111-.472-31.311-2.358-41.388-3.107-5.8-7.515-8.69-13.359-8.383,5.453,10.539,10.589,30.031,15.717,49.771" transform="translate(-488.185 -549.386)"/>
      <path id="Path_5179" data-name="Path 5179" d="M561.987,669.9l3.083,11.627a22.706,22.706,0,0,1,7.364,10.327c-5.98,8.036-12.457,8.645-22.45,4.419a2.911,2.911,0,0,1-1.213-4.417,11.41,11.41,0,0,0,2.446-6.555l-3.563-21.691Z" transform="translate(-398.006 -482.279)" fill="#fff"/>
      <path id="Path_5180" data-name="Path 5180" d="M558.742,697.81a28,28,0,0,1-10.678-2.632,3.541,3.541,0,0,1-1.474-5.372,10.631,10.631,0,0,0,2.322-6.133l-3.554-21.635a.629.629,0,0,1,.874-.679l14.333,6.289a.631.631,0,0,1,.356.416l3.029,11.421A23.163,23.163,0,0,1,571.363,690a.629.629,0,0,1-.1.558c-3.642,4.894-7.525,7.255-12.523,7.255m-11.953-34.831,3.375,20.546a.6.6,0,0,1,.009.111,11.834,11.834,0,0,1-2.571,6.922,2.28,2.28,0,0,0,.953,3.46c10.17,4.3,16.032,3.237,21.5-3.951a22.333,22.333,0,0,0-7.042-9.714.629.629,0,0,1-.227-.339l-3.005-11.334Z" transform="translate(-396.332 -480.602)"/>
      <path id="Path_5181" data-name="Path 5181" d="M535.42,577.506c-4.42-.036-.455,4.835-16.445.738-6.556-1.68-2.929,5.81-4.638,5.408-6.312-1.483-8.485.7-9.874,1.846a8.165,8.165,0,0,0-2.6,7.115c.679,3.613,5.565,4.479,8.616,12.033,2.143,5.306,1.844,8.609,4.058,9.289,2.238.688,3.718-2.328,6.219-1.76,3.238.734,2.878,6.266,6.1,8.394,2.031,1.342,6.625,1.785,13.761-2.114a2.732,2.732,0,0,0,1.286-3.252c-.529-1.6-1.208-3.626-2.019-5.5-3.866-8.95-7.231-10.852-6.165-13.272,1.633-3.709,8.618-1.972,9.611-5,1.031-3.146-1.86-13.872-7.911-13.921" transform="translate(-364.654 -419.701)"/>
      <path id="Path_5182" data-name="Path 5182" d="M572.772,626.056a27.234,27.234,0,0,1,1.718,3.35c.927,2.163,2.546,5.864,3.611,7.868,1.321,2.485,8.667-.278,10.944-1.208a.685.685,0,0,0,.356-.935l-.915-2.159,1.8-.553a1.352,1.352,0,0,0,.543-.434,1.294,1.294,0,0,0-.02-1.531c-1.711-2.266-4.739-5.987-6.377-10.691a1.286,1.286,0,0,0-1.1-.862,14.31,14.31,0,0,0-9.7,2.8,3.311,3.311,0,0,0-.858,4.356" transform="translate(-415.917 -449.753)" fill="#fff"/>
      <path id="Path_5183" data-name="Path 5183" d="M578.93,637.234c-1.416,0-2.549-.365-3.065-1.335-1.089-2.049-2.744-5.839-3.634-7.916a26.687,26.687,0,0,0-1.679-3.273,3.934,3.934,0,0,1,1.018-5.185A15.027,15.027,0,0,1,581.7,616.6a1.917,1.917,0,0,1,1.646,1.284,36.138,36.138,0,0,0,5.8,9.883l.482.634a1.922,1.922,0,0,1,.033,2.273,1.985,1.985,0,0,1-.792.643.682.682,0,0,1-.081.031l-1.137.348.642,1.516a1.3,1.3,0,0,1,.033,1.016,1.32,1.32,0,0,1-.73.747c-2.439,1-6.045,2.255-8.674,2.255m-7.3-13.174a27.878,27.878,0,0,1,1.758,3.428c.882,2.058,2.522,5.812,3.589,7.82.692,1.3,4.772.7,10.15-1.495,0-.01.018-.1.013-.107l-.915-2.159a.63.63,0,0,1,.4-.848l1.758-.539a.7.7,0,0,0,.258-.209.666.666,0,0,0-.007-.788l-.478-.629a37.2,37.2,0,0,1-5.991-10.233.659.659,0,0,0-.563-.443,13.763,13.763,0,0,0-9.27,2.674,2.677,2.677,0,0,0-.7,3.528" transform="translate(-414.236 -448.081)"/>
      <path id="Path_5184" data-name="Path 5184" d="M556.547,660.81c-4.423,2.059-6.409-2.058-5.652-4.7a1.427,1.427,0,0,1,2.5-.456l3.363,4.331a.545.545,0,0,1-.207.829" transform="translate(-400.247 -476.088)" fill="#fff"/>
      <path id="Path_5185" data-name="Path 5185" d="M1007.463,1237.91a9.043,9.043,0,0,0-.666-1.082c-.478-.653-1.341-1.936-2.224-2.026a1.579,1.579,0,0,0-1.433,2.577,8.768,8.768,0,0,0,3.358,2.536c2.037.772,1.621-.753.965-2.005" transform="translate(-728.764 -897.381)" fill="#fff"/>
      <path id="Path_5186" data-name="Path 5186" d="M1005.719,1239.079a3.283,3.283,0,0,1-1.123-.25,9.317,9.317,0,0,1-3.632-2.739,2.209,2.209,0,0,1,1.995-3.59c1.1.112,1.976,1.325,2.557,2.127l.111.154a9.582,9.582,0,0,1,.716,1.162c.69,1.317.794,2.218.318,2.755a1.208,1.208,0,0,1-.942.382m-3.016-5.334a.949.949,0,0,0-.86.48.973.973,0,0,0,.116,1.091,8.173,8.173,0,0,0,3.084,2.334,2.2,2.2,0,0,0,.651.167,3.521,3.521,0,0,0-.467-1.292,8.472,8.472,0,0,0-.616-1l-.116-.159c-.366-.506-1.128-1.557-1.664-1.612-.043,0-.085-.007-.127-.007" transform="translate(-727.086 -895.705)"/>
      <path id="Path_5187" data-name="Path 5187" d="M1048.114,1771.784a7,7,0,1,0,7-7,7,7,0,0,0-7,7" transform="translate(-761.714 -1282.552)"/>
      <path id="Path_5188" data-name="Path 5188" d="M920.018,1772.005a7,7,0,1,0,7-7,7,7,0,0,0-7,7" transform="translate(-668.621 -1282.713)"/>
      <path id="Path_5189" data-name="Path 5189" d="M982.968,1283.27v-48.207c0-1.293-1.63-2.2-3.161-2.2l-25.142.435c-1.951,0-3.487.762-3.487,2.409v47.563h-3.46s.171-.2.171-.265v-47.97c0-2.616,2.122-4.455,5.221-4.455h27.7c3.1,0,6,1.839,6,4.455v47.97a.856.856,0,0,1-.138.265Z" transform="translate(-688.751 -894.321)"/>
      <path id="Path_5190" data-name="Path 5190" d="M902.979,1511.844h53.143a11.651,11.651,0,0,0,11.651-11.651v-81.433a11.651,11.651,0,0,0-11.651-11.651H902.979a11.651,11.651,0,0,0-11.651,11.651v81.433a11.651,11.651,0,0,0,11.651,11.651" transform="translate(-647.77 -1022.612)" fill="#fff"/>
      <path id="Path_5191" data-name="Path 5191" d="M954.447,1510.8H901.3a12.3,12.3,0,0,1-12.281-12.281v-81.433A12.3,12.3,0,0,1,901.3,1404.8h53.143a12.3,12.3,0,0,1,12.281,12.281v81.433a12.3,12.3,0,0,1-12.281,12.281M901.3,1406.062a11.034,11.034,0,0,0-11.021,11.021v81.433a11.034,11.034,0,0,0,11.021,11.021h53.143a11.034,11.034,0,0,0,11.021-11.021v-81.433a11.034,11.034,0,0,0-11.021-11.021Z" transform="translate(-646.095 -1020.936)"/>
      <path id="Path_5192" data-name="Path 5192" d="M899.185,1512.487h45.24a12.038,12.038,0,0,0,12.038-12.038V1418.49a12.038,12.038,0,0,0-12.038-12.038h-45.24a12.038,12.038,0,0,0-12.038,12.038v81.959a12.038,12.038,0,0,0,12.038,12.038" transform="translate(-644.732 -1022.135)" fill="#fff"/>
      <path id="Path_5193" data-name="Path 5193" d="M942.749,1511.442H897.51a12.682,12.682,0,0,1-12.668-12.668v-81.96a12.682,12.682,0,0,1,12.668-12.667h45.24a12.682,12.682,0,0,1,12.668,12.667v81.96a12.682,12.682,0,0,1-12.668,12.668m-45.24-106.035a11.421,11.421,0,0,0-11.408,11.407v81.96a11.421,11.421,0,0,0,11.408,11.408h45.24a11.421,11.421,0,0,0,11.408-11.408v-81.96a11.421,11.421,0,0,0-11.408-11.407Z" transform="translate(-643.056 -1020.46)"/>
      <path id="Path_5194" data-name="Path 5194" d="M969.892,1232.749h24.526a1.364,1.364,0,0,0,1.364-1.365v-1.845a1.364,1.364,0,0,0-1.364-1.365H969.892a1.365,1.365,0,0,0-1.365,1.365v1.845a1.365,1.365,0,0,0,1.365,1.365" transform="translate(-703.874 -892.573)" fill="#fff"/>
      <path id="Path_5195" data-name="Path 5195" d="M992.743,1231.7H968.217a2,2,0,0,1-1.994-1.995v-1.844a2,2,0,0,1,1.994-1.995h24.526a2,2,0,0,1,1.995,1.995v1.844a2,2,0,0,1-1.995,1.995m-24.526-4.574a.735.735,0,0,0-.734.735v1.844a.735.735,0,0,0,.734.735h24.526a.736.736,0,0,0,.735-.735v-1.844a.736.736,0,0,0-.735-.735Z" transform="translate(-702.2 -890.897)"/>
      <path id="Path_5196" data-name="Path 5196" d="M1074.169,1722.919h-9.96a.63.63,0,1,1,0-1.259h9.96a5.678,5.678,0,0,0,5.672-5.672v-14.081a.63.63,0,1,1,1.26,0v14.081a6.94,6.94,0,0,1-6.932,6.932" transform="translate(-772.954 -1236.398)"/>
      <path id="Path_5197" data-name="Path 5197" d="M942.511,1708.418H909.458a8.228,8.228,0,0,1-8.219-8.219v-18.247a.63.63,0,0,1,1.259,0V1700.2a6.967,6.967,0,0,0,6.959,6.959h33.054a.63.63,0,1,1,0,1.26" transform="translate(-654.973 -1221.897)"/>
      <path id="Path_5198" data-name="Path 5198" d="M901.868,1485.321a.629.629,0,0,1-.63-.63V1431.04a8.2,8.2,0,0,1,8.188-8.188h10.781a.63.63,0,1,1,0,1.26H909.426a6.935,6.935,0,0,0-6.928,6.928v53.652a.629.629,0,0,1-.63.63" transform="translate(-654.972 -1034.054)" fill="#fff"/>
      <path id="Path_5199" data-name="Path 5199" d="M1043.561,1447.9a.629.629,0,0,1-.63-.63v-15.786a7.384,7.384,0,0,0-7.377-7.377h-22.133a.63.63,0,0,1,0-1.26h22.133a8.646,8.646,0,0,1,8.636,8.636v15.786a.63.63,0,0,1-.63.63" transform="translate(-736.044 -1034.054)"/>
      <path id="Path_5200" data-name="Path 5200" d="M1007.167,1582.733a.629.629,0,0,1-.471-.212l-13.985-15.747a.63.63,0,1,1,.942-.836l13.985,15.747a.63.63,0,0,1-.471,1.048" transform="translate(-721.335 -1137.887)"/>
      <path id="Path_5201" data-name="Path 5201" d="M943.147,1510.543a.626.626,0,0,1-.471-.212l-14.978-16.9a.63.63,0,0,1,.943-.835l14.978,16.9a.63.63,0,0,1-.471,1.047" transform="translate(-674.087 -1084.584)"/>
      <path id="Path_5202" data-name="Path 5202" d="M1013.418,1699.532a.629.629,0,0,1-.471-.211l-10.96-12.342a.63.63,0,0,1,.942-.836l10.96,12.342a.63.63,0,0,1-.471,1.048" transform="translate(-728.076 -1225.246)"/>
      <path id="Path_5203" data-name="Path 5203" d="M1038.812,1490.936a.629.629,0,0,1-.471-.212l-10.96-12.342a.63.63,0,0,1,.942-.836l10.96,12.342a.63.63,0,0,1-.471,1.048" transform="translate(-746.531 -1073.649)"/>
      <path id="Path_5204" data-name="Path 5204" d="M931.735,991.86s.7,22.179,2.794,32.307c1.474,7.126,6.577,13.675,10.434,19.669,1.614,2.508,3.152,5.062,4.554,7.7,1.358,2.55,3.6,5.193,3.342,8.217-1.008-1.469-2.928-1.935-4.671-2.3s-3.664-.865-4.629-2.363a9.271,9.271,0,0,1-.882-2.354c-.945-3.058-3.34-6.119-5.55-8.4a51.033,51.033,0,0,1-4.364-5.175,72.41,72.41,0,0,1-7.045-11.865c-3.281-6.85-6.068-14.383-6.985-21.966-.261-2.161-.773-4.967,1.181-6.172l11.82-7.3" transform="translate(-667.498 -720.832)" fill="#fff"/>
      <path id="Path_5205" data-name="Path 5205" d="M951.18,1058.7a.63.63,0,0,1-.52-.274c-.844-1.231-2.506-1.668-4.281-2.041-1.863-.392-3.942-.951-5.029-2.637a7.354,7.354,0,0,1-.81-2.02c-.047-.164-.094-.327-.144-.49-.967-3.127-3.47-6.153-5.4-8.142a51.978,51.978,0,0,1-4.419-5.239,73.374,73.374,0,0,1-7.107-11.968c-3.927-8.2-6.23-15.448-7.042-22.162l-.057-.455c-.281-2.225-.631-4.994,1.532-6.329l11.82-7.3a.629.629,0,0,1,.96.516c.007.221.722,22.24,2.782,32.2,1.186,5.731,4.742,11.042,8.181,16.179.743,1.11,1.474,2.2,2.166,3.276,1.786,2.775,3.285,5.307,4.581,7.741.307.576.657,1.153,1.028,1.764,1.277,2.1,2.6,4.275,2.385,6.8a.63.63,0,0,1-.627.577M929.465,991.29c-10.92,6.741-10.922,6.743-10.948,6.756-1.424.882-1.143,3.108-.895,5.072l.058.462c.795,6.575,3.06,13.7,6.928,21.77a72.031,72.031,0,0,0,6.983,11.762,50.675,50.675,0,0,0,4.31,5.112c2.026,2.088,4.659,5.282,5.7,8.648.053.17.1.34.151.513a6.314,6.314,0,0,0,.658,1.685c.825,1.28,2.542,1.733,4.23,2.088a10.847,10.847,0,0,1,3.821,1.358,14.766,14.766,0,0,0-2.114-4.535c-.364-.6-.74-1.218-1.064-1.827-1.28-2.4-2.761-4.9-4.528-7.651-.688-1.068-1.414-2.153-2.153-3.257-3.506-5.237-7.133-10.652-8.368-16.625-1.816-8.781-2.594-26.741-2.768-31.33" transform="translate(-665.819 -719.157)"/>
      <path id="Path_5206" data-name="Path 5206" d="M938.906,991.237c4.175,21.143,8.341,42.751,12.76,51.457l-6.066,4.6c-2.31.494-19.635-24.538-19.662-26.147-.185-10.957,5.388-39.739,12.969-29.912" transform="translate(-672.919 -718.916)" fill="#fff"/>
      <path id="Path_5207" data-name="Path 5207" d="M943.853,1046.244a2.289,2.289,0,0,1-1.33-.631c-4.156-3.3-18.857-24.242-18.889-26.142-.145-8.577,3.378-30.25,9.473-32.386,1.579-.555,3.134.147,4.624,2.079a.628.628,0,0,1,.119.263l.433,2.2c3.955,20.043,8.043,40.768,12.269,49.094a.63.63,0,0,1-.181.786l-6.066,4.6a.624.624,0,0,1-.249.114.964.964,0,0,1-.2.022m-9.719-58.086a1.757,1.757,0,0,0-.61.115c-4.89,1.714-8.786,21.961-8.63,31.177.467,2.216,16.2,24.346,18.861,25.5l5.442-4.128c-4.22-8.761-8.249-29.184-12.148-48.947l-.4-2.052c-1.093-1.373-1.95-1.66-2.51-1.66" transform="translate(-671.245 -717.227)"/>
      <path id="Path_5208" data-name="Path 5208" d="M837.24,1647.128l-7.523,22.447s8.195-.7,8.978-.546,10.369-20.472,10.369-20.472Z" transform="translate(-602.995 -1197.046)" fill="#fff"/>
      <path id="Path_5209" data-name="Path 5209" d="M828.04,1668.529a.63.63,0,0,1-.6-.83l7.524-22.447a.626.626,0,0,1,.673-.426l11.824,1.43a.63.63,0,0,1,.5.891c-.024.051-2.428,5.22-4.9,10.3-5.205,10.72-5.555,10.641-6.165,10.521-.523-.083-4.928.224-8.8.555a.487.487,0,0,1-.053,0M836,1646.139l-7.056,21.053c2.3-.189,6.539-.534,7.874-.482,1.142-1.459,6.3-12.157,9.635-19.307Zm1.132,20.595.008,0-.008,0" transform="translate(-601.318 -1195.37)"/>
      <path id="Path_5210" data-name="Path 5210" d="M815.434,1699.324s11.315-4.638,13.407,1.183c2.661,7.4,6.822,18.7,6.822,18.7a3.17,3.17,0,0,1-2.732,4.23c-4.135.333-10.3.6-13.176-.406-4.536-1.591-12.062-15.948-12.062-15.948l2.32-12.215s4.1-.578,5.421,4.454" transform="translate(-586.989 -1231.728)" fill="#fff"/>
      <path id="Path_5211" data-name="Path 5211" d="M824.593,1722.709a22.6,22.6,0,0,1-6.72-.744c-4.716-1.654-12.1-15.654-12.411-16.25a.631.631,0,0,1-.061-.41l2.32-12.214a.63.63,0,0,1,.531-.506c.047-.007,4.29-.543,5.917,4.247,1.908-.694,7.534-2.488,11.028-.933a4.606,4.606,0,0,1,2.563,2.734c2.63,7.317,6.778,18.583,6.82,18.7a3.8,3.8,0,0,1-3.273,5.077c-2.073.167-4.458.3-6.714.3m-17.913-17.385c2.154,4.072,8.139,14.235,11.611,15.453,2.113.74,6.7.873,12.916.373a2.54,2.54,0,0,0,2.19-3.39c-.04-.109-4.19-11.379-6.821-18.7a3.346,3.346,0,0,0-1.889-2.008c-3.687-1.641-10.617,1.167-10.687,1.194a.624.624,0,0,1-.52-.019.63.63,0,0,1-.328-.4c-.921-3.518-3.295-3.973-4.286-4Z" transform="translate(-585.315 -1230.066)"/>
      <path id="Path_5212" data-name="Path 5212" d="M866.865,1780.534H855.244a.63.63,0,0,1,0-1.26h11.621a.63.63,0,1,1,0,1.26" transform="translate(-621.088 -1293.083)"/>
      <path id="Path_5213" data-name="Path 5213" d="M779.179,1665.755l2.556,22.58,10.283-2.821-.792-20.345Z" transform="translate(-566.266 -1210.157)" fill="#fff"/>
      <path id="Path_5214" data-name="Path 5214" d="M780.06,1687.287a.63.63,0,0,1-.626-.559l-2.557-22.581a.631.631,0,0,1,.6-.7l12.048-.585a.594.594,0,0,1,.457.165.63.63,0,0,1,.2.44l.791,20.345a.63.63,0,0,1-.462.632l-10.283,2.821a.64.64,0,0,1-.167.022m-1.856-22.614,2.4,21.182,9.091-2.494-.747-19.21Z" transform="translate(-564.59 -1208.479)"/>
      <path id="Path_5215" data-name="Path 5215" d="M775.382,1747.648h16.271a3.606,3.606,0,0,0,3.57-4.133c-.544-3.675-2.314-9.769-7.618-18.151a3.167,3.167,0,0,0-2.674-1.472h-4.949a1.667,1.667,0,0,0-1.658,1.493l-.374,3.57-1.5-1.539a1.125,1.125,0,0,0-1.875.429,57.078,57.078,0,0,0-2.806,16.128,3.611,3.611,0,0,0,3.61,3.674" transform="translate(-560.883 -1252.834)" fill="#fff"/>
      <path id="Path_5216" data-name="Path 5216" d="M789.977,1746.6H773.706a4.241,4.241,0,0,1-4.24-4.316,57.576,57.576,0,0,1,2.837-16.314,1.755,1.755,0,0,1,2.926-.672l.56.576.234-2.233a2.29,2.29,0,0,1,2.284-2.057h4.949a3.772,3.772,0,0,1,3.206,1.765c5.38,8.5,7.161,14.7,7.709,18.4a4.236,4.236,0,0,1-4.193,4.855m-16-20.574a.492.492,0,0,0-.116.013.483.483,0,0,0-.356.325,56.238,56.238,0,0,0-2.774,15.943,2.982,2.982,0,0,0,2.98,3.033h16.271a2.976,2.976,0,0,0,2.946-3.411c-.53-3.58-2.265-9.593-7.527-17.907a2.554,2.554,0,0,0-2.141-1.179h-4.949a1.034,1.034,0,0,0-1.031.929l-.374,3.571a.629.629,0,0,1-1.078.373l-1.5-1.539a.482.482,0,0,0-.354-.151" transform="translate(-559.207 -1251.159)"/>
      <path id="Path_5217" data-name="Path 5217" d="M799.084,1795.551H782.606a.63.63,0,0,1,0-1.26h16.478a.63.63,0,0,1,0,1.26" transform="translate(-568.299 -1303.996)"/>
      <path id="Path_5218" data-name="Path 5218" d="M780.114,1158.851a3.773,3.773,0,0,0-2.362-2.175,57.976,57.976,0,0,0-48.047,6.91,3.794,3.794,0,0,0-1.737,2.924c-.772,10.851-3.651,67.578,14.294,134.743l12.088-.861,2.464-114.841s17.906,42.1,3.346,109.1l12.573,2.321s18.4-24.193,21.694-61.163c2.915-32.7-11.052-69.018-14.313-76.962" transform="translate(-528.58 -838.863)"/>
      <path id="Path_5219" data-name="Path 5219" d="M759.686,1453.027h-.028c-11.306-.488-12.585-15.853-12.6-16.009a.63.63,0,0,1,.581-.675.637.637,0,0,1,.675.581c.011.144,1.208,14.4,11.395,14.844a.63.63,0,0,1-.026,1.259" transform="translate(-542.924 -1043.857)" fill="#fff"/>
      <path id="Path_5220" data-name="Path 5220" d="M836.555,1253.93a.631.631,0,0,1-.629-.611l-.323-10.91a7.035,7.035,0,0,1,2.993-5.977l4.708-3.31a.63.63,0,1,1,.724,1.031l-4.708,3.31a5.777,5.777,0,0,0-2.458,4.91l.323,10.91a.63.63,0,0,1-.611.648Z" transform="translate(-607.27 -896.084)" fill="#fff"/>
      <path id="Path_5221" data-name="Path 5221" d="M747.8,702.943a19.834,19.834,0,0,1,19.736-4.652c7.573,2.4,11.167,9.182,13.7,13.964a51.673,51.673,0,0,1,5.625,16.3c5.406,27.859-17.364,42.7-21.473,41.246-12.47-4.407-22.282,10.932-23.571-7.381-.867-12.312,12.043-21.636,5.734-32.126-1.607-2.672-3-3.435-4.136-6.74-1.851-5.367-1.956-14.285,4.384-20.613" transform="translate(-539.081 -506.828)" fill="#fff"/>
      <path id="Path_5222" data-name="Path 5222" d="M745.337,770.626a4.556,4.556,0,0,1-2.67-.759c-1.83-1.262-2.8-4.057-3.156-9.066-.388-5.508,1.852-10.332,4.019-15,2.79-6.009,5.2-11.2,1.8-16.848a22.7,22.7,0,0,0-1.618-2.3,14.2,14.2,0,0,1-2.574-4.556c-2.137-6.2-1.564-15.177,4.535-21.265a20.434,20.434,0,0,1,20.372-4.806c7.818,2.479,11.579,9.574,14.068,14.27a52.184,52.184,0,0,1,5.593,15.97c.036.2.066.37.092.507,4.125,21.256-8.238,33.84-12.125,37.19-3.988,3.438-8.267,5.449-10.175,4.77-4.769-1.684-9.071-.383-12.867.765a19.682,19.682,0,0,1-5.3,1.13m14.51-74.268a18.543,18.543,0,0,0-13.283,5.366c-5.712,5.7-6.242,14.135-4.233,19.962a13,13,0,0,0,2.381,4.2,23.9,23.9,0,0,1,1.7,2.424c3.742,6.222,1.079,11.957-1.741,18.028-2.1,4.52-4.27,9.194-3.9,14.378.315,4.466,1.17,7.122,2.615,8.117,1.559,1.074,3.91.363,6.887-.539,3.784-1.144,8.492-2.57,13.651-.746,1.049.371,4.615-.814,8.933-4.537,4.815-4.151,15.6-15.968,11.711-36-.028-.142-.059-.317-.1-.526a50.971,50.971,0,0,0-5.467-15.6c-2.535-4.784-6.008-11.336-13.335-13.659a19.484,19.484,0,0,0-5.819-.868m-13.727,4.92h0Z" transform="translate(-537.405 -505.163)"/>
      <path id="Path_5223" data-name="Path 5223" d="M644.376,907.373c1.412-4.854,3.023-9.535,4.575-13.763,5.309-14.465,16.313-17.7,20.6-18.724.675-.161,8.3-1.173,8.3-1.173v.008a61.214,61.214,0,0,1,34.327,1.17c.442.14.87.306,1.291.484v-.005c9.8,2.329,18.7,23.254,21.158,29.49a2.16,2.16,0,0,1-.94,2.666l-6.792,3.891c1.015,6.778-.359,14.234-4.289,22.418.639,5.394,17.317,80.907,12.237,82.832-5.307,2.011-23.156-4.706-34.513-4.706-12.176,0-26.872,11.292-32.317,5.648-4.867-5.045-8.472-33.886-10.4-58.191l-4.657-20.562c-8.471-9.1-10.147-26.083-8.576-31.48" transform="translate(-467.915 -633.588)" fill="#fff"/>
      <path id="Path_5224" data-name="Path 5224" d="M776.312,847c-3.023-2.964-5.472-6.147-5.235-10.359l-9.2,9.676a2.226,2.226,0,0,0,.16,3.238,15.775,15.775,0,0,0,11.695,3.863Z" transform="translate(-553.242 -608.03)" fill="#fff"/>
      <path id="Path_5225" data-name="Path 5225" d="M922.652,921.748a.642.642,0,0,1-.209-.036.63.63,0,0,1-.41-.712c0-.857-1.632-8.046-1.851-8.65-1.815-4.613-10.671-22.9-18.4-29.138a.63.63,0,1,1,.791-.98c7.922,6.4,16.934,24.975,18.778,29.661.028.07,2.184,8.6,1.891,9.434a.63.63,0,0,1-.594.421m-.594-.839h0Z" transform="translate(-655.2 -641.058)"/>
      <path id="Path_5226" data-name="Path 5226" d="M671.739,1024.7a6.216,6.216,0,0,1-4.721-1.78c-4.881-5.061-13.651-71.121-14.268-75.8a56.581,56.581,0,0,1-5.621-9.72c-.17-.3-4.759-8.768-3.923-25.179.079-1.551,1.964-6.769,4.057-12.44l.555-1.508c3.761-10.248,10.842-16.68,21.045-19.12.185-.044.822-.158,4.191-.621a.63.63,0,0,1,.172,1.247c-3.217.443-3.931.565-4.07.6-9.769,2.335-16.551,8.5-20.157,18.329l-.556,1.509c-1.461,3.958-3.9,10.581-3.981,12.068-.818,16.054,3.745,24.471,3.791,24.554a56.324,56.324,0,0,0,5.6,9.649.628.628,0,0,1,.125.3c2.566,19.572,10.074,71.244,13.948,75.26,2.8,2.9,8.608.755,15.336-1.73,5.218-1.927,11.132-4.11,16.528-4.11s12.338,1.518,18.458,2.859c6.783,1.486,13.194,2.889,15.832,1.888.476-.273,1.739-3.025-2.182-26.867-2.384-14.5-5.811-31.608-8.078-42.929-1.3-6.476-2.234-11.154-2.378-12.373a.627.627,0,0,1,.058-.346c3.713-7.731,5.163-14.974,4.308-21.529a.63.63,0,1,1,1.249-.162c.881,6.752-.579,14.174-4.34,22.066.2,1.411,1.106,5.938,2.34,12.1,2.289,11.431,5.749,28.706,8.139,43.3,4.385,26.768,2.323,27.549,1.332,27.925-2.99,1.13-9.273-.243-16.548-1.836-6.058-1.326-12.924-2.829-18.188-2.829-5.17,0-10.973,2.142-16.092,4.033-4.534,1.674-8.676,3.2-11.959,3.2" transform="translate(-467.375 -638.461)"/>
      <path id="Path_5227" data-name="Path 5227" d="M676.663,1021.375c-9.777,0-18.131-3.409-24.276-10.074-9.872-10.705-12.75-28.4-7-43.027a.63.63,0,1,1,1.172.461c-5.492,13.97-2.653,31.512,6.753,41.712,8.541,9.262,21.589,11.97,36.835,7.675l-11.315-9.283a.63.63,0,1,1,.8-.974l12.237,10.04a.63.63,0,0,1-.217,1.09,51.99,51.99,0,0,1-14.988,2.379" transform="translate(-466.898 -703.401)"/>
      <path id="Path_5228" data-name="Path 5228" d="M790.862,754.251a.8.8,0,0,1-1.075-.57c-.519-2.3-2.588-6.049-5.351-7.189-3.541-1.462-7.961-1.019-9.355,1.649-1.217,2.328-.68,3.944-3.9,6.689-.308.263-.168.789.11,1.083l1.454,1.707a3.037,3.037,0,0,1,.435,1.745c-.1,1.407-.411,4.382,0,4.842.81.9,5.515,1.382,5.515,1.382l1.6,13.464a.908.908,0,0,1-.82,1.015l-3.271,4.561s.4-1.181,11.678-.083c7.207.7,14.917-6.838,14.917-6.838s-14.279,2.1-13.428-14.588a1.039,1.039,0,0,1,.557-.865c1.244-.647,4.626-2.6,4.518-5.167-.115-2.725-2.017-3.453-3.592-2.838" transform="translate(-560.328 -541.912)" fill="#fff"/>
      <path id="Path_5229" data-name="Path 5229" d="M774.536,783.605a.63.63,0,0,1-.6-.833.664.664,0,0,1,.176-.291l3.179-4.434a.629.629,0,0,1,.459-.26.272.272,0,0,0,.186-.1.285.285,0,0,0,.062-.214l-1.543-12.967c-1.51-.18-4.618-.648-5.416-1.531-.459-.508-.442-1.762-.221-4.566.021-.274.041-.526.055-.741a2.687,2.687,0,0,0-.265-1.271l-1.475-1.731a1.627,1.627,0,0,1-.433-1.154,1.135,1.135,0,0,1,.394-.817,8.006,8.006,0,0,0,2.915-4.385,12.353,12.353,0,0,1,.833-2.116c1.628-3.116,6.537-3.433,10.154-1.94,3.043,1.256,5.18,5.22,5.726,7.632a.167.167,0,0,0,.231.122h0a3.167,3.167,0,0,1,2.921.229,3.694,3.694,0,0,1,1.53,3.17c.116,2.745-2.993,4.782-4.856,5.751a.408.408,0,0,0-.219.339c-.263,5.149.918,8.954,3.51,11.311,3.72,3.383,9.141,2.63,9.2,2.622a.63.63,0,0,1,.532,1.073c-.308.3-7.309,7.064-14.388,7.065q-.516,0-1.031-.05c-9.13-.89-10.911-.241-11.146-.125a.632.632,0,0,1-.471.211m3.893-1.812c1.789,0,4.3.128,7.846.474,5.125.5,10.627-3.453,13.091-5.494a12.749,12.749,0,0,1-8.37-3.031c-2.885-2.622-4.2-6.763-3.921-12.306a1.673,1.673,0,0,1,.895-1.393c1.287-.67,4.27-2.456,4.18-4.581a2.578,2.578,0,0,0-.959-2.168,1.931,1.931,0,0,0-1.775-.11,1.427,1.427,0,0,1-1.919-1.017c-.49-2.169-2.493-5.72-4.978-6.746-3.117-1.288-7.3-1.047-8.557,1.358a11.254,11.254,0,0,0-.748,1.917,9.23,9.23,0,0,1-3.249,4.918.461.461,0,0,0,.11.213l1.477,1.732a3.554,3.554,0,0,1,.584,2.2c-.015.219-.035.476-.057.754a18.169,18.169,0,0,0-.069,3.652c.475.423,2.976.931,5.083,1.149a.631.631,0,0,1,.561.552l1.6,13.464a1.535,1.535,0,0,1-.337,1.159,1.519,1.519,0,0,1-.742.5l-2.088,2.913a22.5,22.5,0,0,1,2.343-.1" transform="translate(-558.653 -540.258)"/>
      <path id="Path_5230" data-name="Path 5230" d="M735.59,878.542c6.136,7.211,23.916,3.3,39.141.136a.818.818,0,0,1,.642,1.464c-8.84,6.4-20.931,11.913-48.309,5.6.754-2.416,3.782-4,8.526-7.2" transform="translate(-528.392 -638.478)" fill="#fff"/>
      <path id="Path_5231" data-name="Path 5231" d="M746.937,887.493a97.235,97.235,0,0,1-21.689-2.811.63.63,0,0,1-.46-.8c.688-2.2,2.972-3.706,6.429-5.979.726-.477,1.509-.992,2.345-1.557a.629.629,0,0,1,.833.113c5.747,6.755,22.585,3.248,37.438.155l1.095-.228a1.448,1.448,0,0,1,1.139,2.592c-6.319,4.578-14.085,8.516-27.13,8.516m-20.674-3.872c26.3,5.918,38.168.782,47.066-5.665a.172.172,0,0,0,.063-.231.166.166,0,0,0-.207-.107l-1.094.228c-14.9,3.1-31.749,6.612-38.275-.154-.672.451-1.308.869-1.906,1.262-2.837,1.865-4.829,3.174-5.646,4.667" transform="translate(-526.717 -636.801)"/>
      <path id="Path_5232" data-name="Path 5232" d="M763.3,882.352a.633.633,0,0,1-.2-.031c-.765-.249-1.424-.449-2-.625-2.48-.753-3.611-1.1-5.273-2.856a.63.63,0,1,1,.915-.865c1.432,1.515,2.329,1.788,4.724,2.516.586.178,1.253.381,2.028.632a.63.63,0,0,1-.2,1.229" transform="translate(-549.17 -637.922)"/>
      <path id="Path_5233" data-name="Path 5233" d="M788.667,736.057c10.738,8.916,3.523,30-1.668,40.086-1.09,1.286,24.72,5.517,31.053-1.983,7.563-8.956-15.9-51.723-29.385-38.1" transform="translate(-571.925 -532.998)" fill="#fff"/>
      <path id="Path_5234" data-name="Path 5234" d="M788.419,783.241c-3.744,0-6.531-.288-6.88-.892a.715.715,0,0,1,.081-.827.619.619,0,0,1,.117-.107c2.186-1.545,6.813-13.463,7.231-24.209.2-5.021-.465-11.747-4.715-15.277a.63.63,0,0,1,.8-.969c3.677,3.054,5.465,8.688,5.17,16.295-.391,10.049-4.309,21.195-7.034,24.482,2.791.416,12.476.463,20.956-1.08a.63.63,0,0,1,.225,1.239,98.232,98.232,0,0,1-15.954,1.347" transform="translate(-567.911 -538.384)"/>
      <path id="Path_5235" data-name="Path 5235" d="M701.386,1009.962s9.869,5.464,24.876,11.885,16.414,11.031,14.457,18.052-21.27,10.916-46.925-2.3-16.433-26.6-12.419-29.689c7.549-5.8,20.01,2.05,20.01,2.05" transform="translate(-491.591 -730.945)" fill="#fff"/>
      <path id="Path_5236" data-name="Path 5236" d="M723.453,1045.253c-8.128,0-19.013-2.314-31.623-8.809-11.1-5.717-17.04-12.094-17.658-18.956a13.911,13.911,0,0,1,5.144-11.793c7.74-5.947,19.994,1.557,20.714,2.007.44.242,10.268,5.63,24.8,11.849,15.148,6.481,16.875,11.416,14.816,18.8-.567,2.034-2.359,3.761-5.184,4.995a28.078,28.078,0,0,1-11.012,1.907M686.525,1004.7a10.33,10.33,0,0,0-6.442,2,12.8,12.8,0,0,0-4.657,10.682c.568,6.313,6.44,12.52,16.981,17.949,19.4,9.991,34.509,9.943,41.555,6.866,2.43-1.061,4.019-2.545,4.475-4.178,1.9-6.823.277-11.153-14.1-17.3-14.864-6.359-24.834-11.857-24.933-11.912l-.031-.018c-.089-.056-6.585-4.081-12.849-4.081" transform="translate(-489.914 -729.228)"/>
      <path id="Path_5237" data-name="Path 5237" d="M705.593,1029.284s6.24,1.526,8.834,5.3-.368,8.25-8.014,8.023-8.979-5.171-8.281-8.216c1.508-6.574,7.46-5.1,7.46-5.1" transform="translate(-507.247 -747.927)" fill="#fff"/>
      <path id="Path_5238" data-name="Path 5238" d="M705.264,1041.564c-.182,0-.365,0-.55-.008-4.4-.131-6.593-1.795-7.654-3.168a7.027,7.027,0,0,1-1.223-5.818,7.2,7.2,0,0,1,3.1-4.78,7.278,7.278,0,0,1,5.121-.8c.265.064,6.5,1.629,9.2,5.552a4.973,4.973,0,0,1,.456,5.331c-1.268,2.327-4.408,3.687-8.457,3.687m-2.747-13.466a5.572,5.572,0,0,0-2.927.771,6,6,0,0,0-2.525,3.982,5.754,5.754,0,0,0,.992,4.767c1.283,1.661,3.6,2.587,6.693,2.678,3.845.122,6.771-1.015,7.864-3.022a3.709,3.709,0,0,0-.387-4.015c-2.424-3.522-8.4-5.025-8.465-5.042a5.948,5.948,0,0,0-1.245-.12" transform="translate(-505.567 -746.25)"/>
      <path id="Path_5239" data-name="Path 5239" d="M788.231,1100.17l.016.024a3.757,3.757,0,0,0,5.258.974,15.52,15.52,0,0,0,3.343-2.883l1.631-1.721c1.219-1.285,3.653-1.535,4.411-.1,1.064,2.011,2.952,5.013-6.3,13.993-5.383,5.227-10.861-2.9-11.415-7.457a3.715,3.715,0,0,1,.72-2.723,1.484,1.484,0,0,1,2.332-.1" transform="translate(-570.605 -796.144)" fill="#fff"/>
      <path id="Path_5240" data-name="Path 5240" d="M791.268,1111.1a5.185,5.185,0,0,1-1.726-.3c-3.714-1.312-6.3-6.39-6.662-9.4a4.369,4.369,0,0,1,.838-3.172,2.154,2.154,0,0,1,1.789-.878,1.9,1.9,0,0,1,1.564.784l.016.022a3.127,3.127,0,0,0,4.384.823,14.95,14.95,0,0,0,3.247-2.8l1.632-1.721a4.244,4.244,0,0,1,3.478-1.24,2.5,2.5,0,0,1,1.946,1.276l.065.122c1.163,2.187,2.921,5.49-6.479,14.618a5.811,5.811,0,0,1-4.092,1.869m-5.784-12.493a.942.942,0,0,0-.751.365,3.091,3.091,0,0,0-.6,2.273c.334,2.75,2.714,7.262,5.831,8.363a4.2,4.2,0,0,0,4.521-1.282c8.721-8.468,7.23-11.268,6.244-13.121l-.066-.125a1.279,1.279,0,0,0-1-.616,2.957,2.957,0,0,0-2.394.857l-1.632,1.721a16.144,16.144,0,0,1-3.44,2.966,4.386,4.386,0,0,1-6.14-1.138l.505-.376-.515.362a.662.662,0,0,0-.549-.25Z" transform="translate(-568.932 -794.473)"/>
      <path id="Path_5241" data-name="Path 5241" d="M926.285,906.21c-15.026.707-16.7-4.491-10.345-13.374a1.05,1.05,0,0,1,1.552-.165c5.745,5.126,8.143,7.617,8.794,13.539" transform="translate(-663.118 -648.551)" fill="#fff"/>
      <path id="Path_5242" data-name="Path 5242" d="M922.021,905.229c-6.238,0-9.949-1.231-11.315-3.739-1.341-2.464-.348-5.962,3.037-10.7a1.672,1.672,0,0,1,1.174-.687,1.7,1.7,0,0,1,1.309.418c5.592,4.989,8.311,7.666,9,13.94a.631.631,0,0,1-.6.7q-1.372.065-2.61.065M915.1,891.357a.368.368,0,0,0-.048,0,.4.4,0,0,0-.288.168c-3.033,4.241-4.028,7.39-2.955,9.36,1.233,2.266,5.29,3.291,12.079,3.047-.709-5.1-2.878-7.449-8.5-12.469a.422.422,0,0,0-.284-.109" transform="translate(-661.434 -646.876)"/>
      <path id="Path_5243" data-name="Path 5243" d="M250.044,1108.318c-3.236-2.769-48.4,1.1-47.9,3.765-5.438,2.3,2.091,47.5,7.739,70.7l41.834-2.928c3.192-25.342,3.138-72.583-1.673-71.537" transform="translate(-145.54 -804.773)" fill="#fff"/>
      <path id="Path_5244" data-name="Path 5244" d="M208.194,1181.746a.629.629,0,0,1-.611-.481c-3.1-12.733-6.255-29.712-8.04-43.255-3.189-24.208-.836-27.344.37-28.033a1.522,1.522,0,0,1,.639-.614c2.51-1.449,14.5-2.916,24.57-3.665,4.831-.359,20.411-1.367,23.4.305a1.461,1.461,0,0,1,1,.421c4.531,4.146,4.005,49.087,1.139,71.843a.63.63,0,0,1-.581.549l-41.834,2.929h-.045m-7.117-71.232a.631.631,0,0,1-.377.481c-1.578.668-2.382,8.072.092,26.85,1.755,13.32,4.84,29.972,7.889,42.6l40.787-2.855c3.185-25.874,2.732-67.007-.8-70.242-.11-.1-.157-.092-.176-.087a.639.639,0,0,1-.543-.137c-1.037-.887-9.528-1.206-23.747-.1-13.057,1.018-22.046,2.582-23.122,3.482" transform="translate(-143.853 -803.106)"/>
      <path id="Path_5245" data-name="Path 5245" d="M302,1698.538l1.222,16.445a3.062,3.062,0,0,0,3.009,3.264l1.94-.057a3.036,3.036,0,0,0,2.824-3.141l1.826-14.992Z" transform="translate(-219.481 -1234.408)" fill="#fff"/>
      <path id="Path_5246" data-name="Path 5246" d="M304.478,1717.2a3.419,3.419,0,0,1-2.428-1.024,3.931,3.931,0,0,1-1.13-2.855l-1.22-16.414a.629.629,0,0,1,.2-.506.619.619,0,0,1,.518-.164l10.821,1.518a.63.63,0,0,1,.538.7l-1.821,14.956a3.647,3.647,0,0,1-3.436,3.731l-1.94.057h-.1m-3.464-19.607,1.164,15.666a.55.55,0,0,1,0,.064,2.668,2.668,0,0,0,.76,1.962,2.151,2.151,0,0,0,1.6.655l1.94-.057a2.4,2.4,0,0,0,2.213-2.511.644.644,0,0,1,0-.077l1.751-14.378Z" transform="translate(-217.805 -1232.731)"/>
      <path id="Path_5247" data-name="Path 5247" d="M291.6,1754.955a1.107,1.107,0,0,0-1.678-.009,11.37,11.37,0,0,0-2.585,4.613c-.668,2.97-1.8,9.213.255,9.9,1.52.506,17.616-.021,25.581-.312a2.991,2.991,0,0,0,2.162-4.947,19.937,19.937,0,0,0-6.559-4.152c-4.286-1.868-6.323-3.518-7.29-4.638a2.047,2.047,0,0,0-2.624-.439l-2.582,1.586a2.988,2.988,0,0,1-3.836-.607Z" transform="translate(-208.153 -1275.126)" fill="#fff"/>
      <path id="Path_5248" data-name="Path 5248" d="M290.8,1768.616a27.69,27.69,0,0,1-5.1-.24c-1.891-.629-2.117-4.206-.672-10.632a11.894,11.894,0,0,1,2.725-4.89,1.737,1.737,0,0,1,1.309-.6h.009a1.74,1.74,0,0,1,1.313.61h0l.845.991a2.346,2.346,0,0,0,3.027.478l2.582-1.585a2.674,2.674,0,0,1,3.43.563c.88,1.019,2.82,2.622,7.065,4.472a20.316,20.316,0,0,1,6.778,4.312,3.545,3.545,0,0,1,.606,3.781,3.613,3.613,0,0,1-3.216,2.214c-9.494.347-16.413.52-20.706.52m-1.733-15.1a.472.472,0,0,0-.361.165,10.907,10.907,0,0,0-2.445,4.337c-1.324,5.889-1.011,8.877-.16,9.16.37.123,3.289.462,25.36-.344a2.365,2.365,0,0,0,2.1-1.45,2.265,2.265,0,0,0-.389-2.449,19.427,19.427,0,0,0-6.339-3.994c-4.462-1.945-6.55-3.686-7.516-4.8a1.421,1.421,0,0,0-1.817-.314l-2.582,1.586a3.6,3.6,0,0,1-4.645-.734l-.845-.991a.472.472,0,0,0-.362-.168Z" transform="translate(-206.463 -1273.45)"/>
      <path id="Path_5249" data-name="Path 5249" d="M334.864,1777.13a.63.63,0,0,1-.359-1.148l3.917-2.71a.63.63,0,1,1,.717,1.036l-3.917,2.71a.627.627,0,0,1-.358.112" transform="translate(-242.903 -1288.639)"/>
      <path id="Path_5250" data-name="Path 5250" d="M317.744,1373.972s-8.386,71.958-8.388,71.963l-16.341-.617c-.722-1.057-2.2-58.987-.444-67.614,1.386-6.824,5.172-26.661,5.172-26.661l21.1-6.485s-.83,17.628-1.1,29.414" transform="translate(-212.026 -977.154)"/>
      <path id="Path_5251" data-name="Path 5251" d="M222.806,1695.76l1.416,18.343a3.062,3.062,0,0,0,3.009,3.264l1.94-.057a3.036,3.036,0,0,0,2.824-3.141l2.581-17.84Z" transform="translate(-161.924 -1232.389)" fill="#fff"/>
      <path id="Path_5252" data-name="Path 5252" d="M225.474,1716.321a3.417,3.417,0,0,1-2.427-1.023,3.935,3.935,0,0,1-1.13-2.854l-1.414-18.312a.63.63,0,0,1,.177-.488.623.623,0,0,1,.481-.19l11.769.569a.63.63,0,0,1,.593.719l-2.575,17.8a3.646,3.646,0,0,1-3.435,3.723l-1.94.057h-.1m-3.66-21.575,1.361,17.631a.591.591,0,0,1,0,.066,2.669,2.669,0,0,0,.76,1.963,2.138,2.138,0,0,0,1.6.654l1.94-.057a2.4,2.4,0,0,0,2.212-2.511.629.629,0,0,1,.007-.09l2.482-17.154Z" transform="translate(-160.249 -1230.712)"/>
      <path id="Path_5253" data-name="Path 5253" d="M213.109,1759.123a1.107,1.107,0,0,0-1.678-.009,11.37,11.37,0,0,0-2.585,4.613c-.668,2.97-1.8,9.213.255,9.9,1.52.506,17.616-.021,25.581-.313a2.991,2.991,0,0,0,2.162-4.947,19.937,19.937,0,0,0-6.559-4.152c-4.286-1.868-6.323-3.518-7.29-4.638a2.047,2.047,0,0,0-2.624-.439l-2.582,1.586a2.988,2.988,0,0,1-3.836-.607Z" transform="translate(-151.112 -1278.155)" fill="#fff"/>
      <path id="Path_5254" data-name="Path 5254" d="M212.307,1772.784a27.747,27.747,0,0,1-5.1-.239c-1.892-.63-2.117-4.207-.671-10.632a11.894,11.894,0,0,1,2.725-4.89,1.737,1.737,0,0,1,1.309-.6h.01a1.737,1.737,0,0,1,1.312.61h0l.845.991a2.345,2.345,0,0,0,3.027.478l2.582-1.586a2.673,2.673,0,0,1,3.43.564c.88,1.018,2.82,2.62,7.066,4.472a20.314,20.314,0,0,1,6.778,4.312,3.543,3.543,0,0,1,.605,3.78,3.613,3.613,0,0,1-3.215,2.214c-9.494.347-16.413.52-20.707.52m-1.732-15.1a.474.474,0,0,0-.361.165,10.9,10.9,0,0,0-2.445,4.337c-1.325,5.889-1.012,8.876-.16,9.16.37.124,3.293.462,25.36-.344a2.366,2.366,0,0,0,2.1-1.45,2.266,2.266,0,0,0-.389-2.449,19.422,19.422,0,0,0-6.339-3.994c-4.463-1.946-6.551-3.687-7.516-4.8a1.417,1.417,0,0,0-1.817-.314l-2.582,1.586a3.6,3.6,0,0,1-4.645-.734l-.845-.991a.472.472,0,0,0-.361-.169Z" transform="translate(-149.42 -1276.479)"/>
      <path id="Path_5255" data-name="Path 5255" d="M256.375,1781.3a.63.63,0,0,1-.359-1.148l3.917-2.71a.63.63,0,1,1,.717,1.036l-3.917,2.71a.629.629,0,0,1-.358.112" transform="translate(-185.862 -1291.669)"/>
      <path id="Path_5256" data-name="Path 5256" d="M237.441,1377.386s-11.767,70.941-11.769,70.946l-14.466.46c-.722-1.057-.689-59.048,1.063-67.674,1.386-6.824,2.924-33.412,2.924-33.412l20.5,6.776a129.039,129.039,0,0,1,1.749,22.9" transform="translate(-153.171 -979.442)"/>
      <path id="Path_5257" data-name="Path 5257" d="M220.437,1422.727a.63.63,0,0,1-.406-1.112c5.528-4.65,8.374-9.164,8.7-13.8a.621.621,0,0,1,.672-.583.629.629,0,0,1,.584.672c-.351,4.993-3.342,9.794-9.145,14.676a.629.629,0,0,1-.4.148" transform="translate(-159.744 -1022.7)" fill="#fff"/>
      <path id="Path_5258" data-name="Path 5258" d="M388.448,1025.62c8.4,1.513,12.261,1.487,19.211-1.751,0,0,7.744-4.284,7.012-6.477l-2.251-19.524a21.906,21.906,0,0,1,.709-8.83l2.706-7.62a1.2,1.2,0,0,1,2.34.437l-.11,3.951a7.358,7.358,0,0,0,1.843-.191,4.358,4.358,0,0,0,2.525-2.662c.493-1.394,1.3-3.624,1.64-4.235a6.647,6.647,0,0,1,2.128-2.8l.032-.017a1.508,1.508,0,0,1,2.206,1.553l-.647,4.258a14.667,14.667,0,0,1-4.124,8.163l-4.381,4.385a2.845,2.845,0,0,0-.619,3.092l7.44,18.1c1.678,4.179,2.1,8.118,1.012,10.7-5.676,13.456-40.706,21.92-40.706,21.92Z" transform="translate(-280.826 -709.099)" fill="#fff"/>
      <path id="Path_5259" data-name="Path 5259" d="M384.739,1047.045a.63.63,0,0,1-.627-.687l2.033-22.457a.63.63,0,0,1,.739-.563c8.353,1.5,12.039,1.465,18.834-1.7,3.479-1.928,7.018-4.693,6.68-5.706a.592.592,0,0,1-.028-.127l-2.252-19.524a22.4,22.4,0,0,1,.731-9.078l2.717-7.654a1.835,1.835,0,0,1,3.563.665l-.092,3.288a4.114,4.114,0,0,0,.974-.135,3.717,3.717,0,0,0,2.153-2.284,42.215,42.215,0,0,1,1.683-4.33c.068-.123.138-.254.21-.389a6.094,6.094,0,0,1,2.165-2.657,2.137,2.137,0,0,1,3.164,2.183l-.646,4.258a15.192,15.192,0,0,1-4.3,8.514l-4.38,4.385a2.208,2.208,0,0,0-.482,2.407l7.44,18.1c1.776,4.422,2.143,8.5,1.01,11.185-5.734,13.592-39.7,21.939-41.139,22.288a.609.609,0,0,1-.148.018m2.6-22.347-1.891,20.887c5.381-1.4,34.418-9.481,39.419-21.335,1.005-2.384.635-6.11-1.016-10.221l-7.438-18.1a3.464,3.464,0,0,1,.757-3.776l4.38-4.385a13.947,13.947,0,0,0,3.947-7.813l.647-4.258a.878.878,0,0,0-1.285-.9,5.086,5.086,0,0,0-1.688,2.161c-.076.141-.148.278-.219.407-.233.421-.816,1.931-1.6,4.14a4.97,4.97,0,0,1-2.9,3.043,7.506,7.506,0,0,1-2.072.231.63.63,0,0,1-.622-.647l.11-3.95a.575.575,0,0,0-1.116-.209l-2.706,7.62a21.131,21.131,0,0,0-.678,8.542l2.246,19.474c.693,2.493-5.421,6.1-7.326,7.156-6.9,3.217-10.9,3.346-18.951,1.94" transform="translate(-279.15 -707.437)"/>
      <path id="Path_5260" data-name="Path 5260" d="M274.41,1157.425l-4.271-20.217c-6.26,1.936-7.432,4.978-14.807,4.841-9.638-5.959-36.905-3.543-48.221-.061-8.1,2.492-7.913,2.69-12.818,6.4l3.774,13.48c2.133,5.659,1.009,11.655,1.536,17.68l2.532,28.925c31.215,8.178,47.145-3.284,47.145-3.284l1.369-30.611q.127-2.829.5-5.634c6.213-1.731,16.648-5.513,23.266-11.516" transform="translate(-141.201 -826.463)" fill="#fff"/>
      <path id="Path_5261" data-name="Path 5261" d="M221.763,1210.342a84.583,84.583,0,0,1-21.463-2.935.631.631,0,0,1-.468-.555l-2.531-28.925c-.18-2.057-.17-4.123-.161-6.121.019-3.984.036-7.747-1.337-11.392l-3.792-13.533a.629.629,0,0,1,.227-.672l1.137-.865c3.858-2.94,4.353-3.318,11.876-5.633,11.071-3.407,38.491-6.011,48.587.036.1,0,.207,0,.308,0a15.481,15.481,0,0,0,8.579-2.379,29.258,29.258,0,0,1,5.554-2.439.629.629,0,0,1,.8.472l4.271,20.217a.628.628,0,0,1-.193.6c-7.125,6.464-18.249,10.158-23.117,11.544-.214,1.718-.362,3.455-.439,5.169l-1.369,30.611a.63.63,0,0,1-.261.483c-.119.086-9.05,6.317-26.21,6.318m-20.714-4.042c28.191,7.253,43.822-1.783,45.941-3.135l1.355-30.292c.085-1.888.254-3.8.5-5.688a.629.629,0,0,1,.455-.525c4.487-1.25,15.6-4.818,22.743-11.136l-4.051-19.176a29.184,29.184,0,0,0-4.672,2.132,16.783,16.783,0,0,1-9.675,2.524.637.637,0,0,1-.32-.094c-9.312-5.758-36.514-3.439-47.7,0-7.308,2.249-7.7,2.55-11.482,5.431l-.8.607,3.66,13.069c1.438,3.81,1.419,7.866,1.4,11.79-.009,1.969-.019,4.006.156,6Z" transform="translate(-139.526 -824.789)"/>
      <path id="Path_5262" data-name="Path 5262" d="M170.83,1198.6a16.365,16.365,0,0,1,1.983-2.882l3.3,8.743a66.374,66.374,0,0,1,3.055,10.821c.556,3.741,2.334,6.384,6.506,6.016,5.263-.464,13.011-1.552,16.8-8.024,1.665-2.846,4.653-5.795,6.343-4.295,1.057.937-.8,2.54-1.49,3.763-.424.751.1,1,.95.875,5.883-.826,9.65-6.294,11.25-3.764.5.792.285,3.151-.628,4.765-2.855,5.047-9.714,7.068-13.9,8.273-7.808,2.248-18.27,13.986-29.994,12.7-8.889-.978-9.385-27.31-4.168-36.987" transform="translate(-121.714 -868.987)" fill="#fff"/>
      <path id="Path_5263" data-name="Path 5263" d="M175.2,1234.646a17.228,17.228,0,0,1-1.895-.1c-2.08-.229-3.822-1.654-5.177-4.235-4.065-7.743-3.786-25.683.523-33.677a17.06,17.06,0,0,1,2.058-2.992.637.637,0,0,1,.587-.211.629.629,0,0,1,.48.4l3.3,8.743a67.12,67.12,0,0,1,3.083,10.923c.6,4.063,2.451,5.807,5.833,5.508,6.15-.542,12.9-1.882,16.308-7.715,1.322-2.259,3.507-4.674,5.411-4.977a2.236,2.236,0,0,1,1.894.53c1.21,1.074.117,2.518-.68,3.572a10.17,10.17,0,0,0-.659.937h0a2.142,2.142,0,0,0,.293-.023,17.477,17.477,0,0,0,6.665-2.854c2.071-1.279,4.026-2.485,5.2-.624.664,1.051.367,3.681-.613,5.411-3.013,5.327-10.061,7.356-14.272,8.569-2.719.783-5.878,2.824-9.223,4.984-5.714,3.692-12.128,7.836-19.119,7.836m-4.211-39.341a15.711,15.711,0,0,0-1.229,1.924c-4.161,7.718-4.436,25.028-.517,32.493,1.148,2.188,2.561,3.388,4.2,3.568,7.281.8,14.142-3.629,20.193-7.538,3.425-2.213,6.659-4.3,9.558-5.137,4.026-1.159,10.764-3.1,13.524-7.978a5.658,5.658,0,0,0,.644-4.119c-.444-.7-1.179-.4-3.478,1.022a18.489,18.489,0,0,1-7.152,3.03c-.8.111-1.357-.044-1.646-.467a1.2,1.2,0,0,1,.06-1.341,10.585,10.585,0,0,1,.772-1.112c.672-.89,1.162-1.592.848-1.87a.976.976,0,0,0-.859-.228c-1.256.2-3.159,2.038-4.522,4.37-3.7,6.327-10.813,7.763-17.284,8.334-2.8.248-6.313-.69-7.185-6.551a65.886,65.886,0,0,0-3.021-10.691Zm-1.784,1.625h0Z" transform="translate(-120.088 -867.314)"/>
      <path id="Path_5264" data-name="Path 5264" d="M176.288,1200.5c-4.354,5.232-10.828,12.288-10.713,18.381-11.878-20.264.124-45.157,5.786-45.7a85.364,85.364,0,0,1,3.924,21.173c.155,2.773,2.78,4.007,1,6.142" transform="translate(-116.652 -852.605)" fill="#fff"/>
      <path id="Path_5265" data-name="Path 5265" d="M163.814,1217.825a.629.629,0,0,1-.543-.311c-8.16-13.921-5.384-29.947-.529-39.44,2.207-4.314,4.748-7.007,6.8-7.2a.619.619,0,0,1,.659.434,86.412,86.412,0,0,1,3.952,21.331,5.887,5.887,0,0,0,.867,2.5c.62,1.163,1.324,2.481-.008,4.082-.4.481-.819.977-1.248,1.486-4.2,4.982-9.42,11.182-9.32,16.48a.63.63,0,0,1-.63.642m5.363-45.579c-1.331.508-3.351,2.565-5.313,6.4-4.5,8.805-7.167,23.393-.489,36.439.991-5.182,5.618-10.674,9.425-15.193.427-.507.844-1,1.243-1.481.758-.911.506-1.481-.135-2.682a7.089,7.089,0,0,1-1.013-3.022,85.191,85.191,0,0,0-3.718-20.461m5.351,26.568h0Z" transform="translate(-114.892 -850.924)"/>
      <path id="Path_5266" data-name="Path 5266" d="M239.989,1009.23c-2.854,1.171-5.3,2.139-8.529,1.761-.551-.064-7.436-.951-8.385-5.2a6.1,6.1,0,0,1,1.03-4.445,4.108,4.108,0,0,1-3.625-4.205,3.986,3.986,0,0,1,2.785-3.31,10.611,10.611,0,0,1-3.1-5.778c-1.045-6.8,6.212-11.824,7.777-12.831,1.847-1.189,6.192-3.986,10.17-2.2a7.874,7.874,0,0,1,3.5,3.338,8.662,8.662,0,0,1,3.014-1.866c4.474-1.591,9.8.983,12.467,4.623A8.893,8.893,0,0,1,259.135,985c-.192,2.31-1.528,3.418-3.19,5.939-3.021,4.584-1.713,5.641-4.037,9.371-3.369,5.408-8.925,7.687-11.92,8.916" transform="translate(-159.931 -706.721)"/>
      <path id="Path_5267" data-name="Path 5267" d="M268.212,1056.656c.125.628,1.055,6.722-1.352,9.426a12.116,12.116,0,0,1-4.737,3.456s11.044,2.578,17,1.2,5.175-2.927,5.175-2.927l-3.37-1.765a3.044,3.044,0,0,1-1.62-2.974l.065-.708a8.092,8.092,0,0,0,5.745-.965c3.263-2.044,3.592-5.923,3.629-7,.074-2.193-.839-1.818-1.608-5.761-.66-3.386-.295-5.112-1.653-7.679a11.473,11.473,0,0,0-1.4-2.069,10.055,10.055,0,0,0-5.782,1.928c-1.832,1.416-1.65,2.509-3.46,3.6-2.641,1.6-5.045.494-5.834,1.873-.291.509-.392,1.408.565,3.111,0,0-2.5-1.644-4.223-.636a2.723,2.723,0,0,0-1.177,1.538c-.559,1.839,1.085,4.378,4.047,6.35" transform="translate(-190.497 -755.009)" fill="#fff"/>
      <path id="Path_5268" data-name="Path 5268" d="M273.128,1070.1a65.949,65.949,0,0,1-12.822-1.625.63.63,0,0,1-.05-1.213,11.682,11.682,0,0,0,4.46-3.274c1.9-2.14,1.516-7.008,1.249-8.635-3.109-2.144-4.706-4.835-4.077-6.9a3.36,3.36,0,0,1,1.461-1.9,3.98,3.98,0,0,1,3.3-.105,2.682,2.682,0,0,1,.134-2.14c.554-.968,1.588-1.064,2.684-1.166a7.326,7.326,0,0,0,3.37-.933,4.693,4.693,0,0,0,1.6-1.6,7.916,7.916,0,0,1,1.8-1.967,10.647,10.647,0,0,1,6.138-2.059.605.605,0,0,1,.51.221,12.132,12.132,0,0,1,1.482,2.182,12.265,12.265,0,0,1,1.3,4.925c.093.844.2,1.8.418,2.929a12.587,12.587,0,0,0,1.067,3.38,4.639,4.639,0,0,1,.552,2.523c-.04,1.212-.444,5.335-3.923,7.515a8.487,8.487,0,0,1-5.513,1.156l0,.04a2.409,2.409,0,0,0,1.285,2.36l3.37,1.765a.63.63,0,0,1,.271.276,1.264,1.264,0,0,1-.044,1.078c-.512,1.087-2.38,2.011-5.553,2.745a20.281,20.281,0,0,1-4.458.422m-10.77-2.482c3.333.649,10.6,1.838,14.944.832,3.49-.807,4.4-1.614,4.639-1.958l-2.984-1.562a3.666,3.666,0,0,1-1.955-3.59l.065-.708a.632.632,0,0,1,.249-.447.62.62,0,0,1,.5-.114,7.39,7.39,0,0,0,5.291-.881c2.953-1.849,3.3-5.434,3.333-6.489a3.444,3.444,0,0,0-.434-1.947,13.86,13.86,0,0,1-1.162-3.672c-.23-1.179-.338-2.163-.434-3.032a10.208,10.208,0,0,0-2.287-6.189,9.258,9.258,0,0,0-5.116,1.779,6.659,6.659,0,0,0-1.541,1.689,5.936,5.936,0,0,1-1.979,1.955,8.486,8.486,0,0,1-3.9,1.109c-.972.09-1.489.156-1.708.538-.275.479-.079,1.341.567,2.49a.63.63,0,0,1-.894.836c-.608-.4-2.435-1.28-3.559-.62a2.116,2.116,0,0,0-.892,1.178c-.464,1.526,1.1,3.846,3.793,5.642a.626.626,0,0,1,.269.4c.014.068,1.268,6.859-1.5,9.967a14.736,14.736,0,0,1-3.3,2.792" transform="translate(-188.823 -753.332)"/>
      <path id="Path_5269" data-name="Path 5269" d="M303.739,1115.681c-3.848,0-7.1-3.1-7.238-3.238a.63.63,0,0,1,.876-.906c.032.032,3.285,3.133,6.789,2.869a.619.619,0,0,1,.675.581.629.629,0,0,1-.581.675q-.262.019-.52.019" transform="translate(-215.342 -807.678)"/>
      <path id="Path_5270" data-name="Path 5270" d="M207.38,1187.337c-.9-11.717.615-26.435-2.075-30.64a.929.929,0,0,1,.342-1.3c3.825-2.157,6.011-3.041,10.936-3.2-1.068,16.391-5.049,25.969-9.2,35.141" transform="translate(-149.103 -837.355)"/>
      <path id="Path_5271" data-name="Path 5271" d="M364.07,1139.773a88.79,88.79,0,0,0,9.622,34.1l1.046-3.138c-2.707-12.652-2.8-22.235-.209-28.657-2.349-2.115-6.108-2.558-10.458-2.3" transform="translate(-264.587 -828.279)"/>
      <path id="Path_5272" data-name="Path 5272" d="M456.578,872.706s2.335-10.842,7.446-14.654c4.488-3.348,3.563,2.3,1.6,5.42a8.929,8.929,0,0,0-.817,1.617,1.339,1.339,0,0,0,2.1,1.513c4.275-3.457,13.347-10.56,14.521-9.544,1.19,1.029.112,4.061-3.033,7.3a3.547,3.547,0,0,0-.986,2.862c.238,2.1.186,5.715-2.438,7.95-3.429,2.921-12.227,5.983-12.227,5.983s-9.4,13.366-31.076,25.84c-11.741,6.758-14.767-2.4-16.728-11.5-2.81-13.032,15.455-9.13,15.455-9.13s10.419,1.24,26.189-13.653" transform="translate(-301.339 -622.793)" fill="#fff"/>
      <path id="Path_5273" data-name="Path 5273" d="M422.908,908.256a7.305,7.305,0,0,1-3-.617c-4.39-1.95-6.05-8.1-7.261-13.72-.719-3.335-.177-5.934,1.611-7.725,4.286-4.295,14.172-2.244,14.592-2.153.042,0,10.243.966,25.484-13.363.352-1.537,2.722-11.163,7.642-14.833,1.632-1.217,2.851-1.473,3.624-.757,1.345,1.244.194,4.939-1.116,7.018a8.356,8.356,0,0,0-.76,1.5.709.709,0,0,0,1.109.8c13.615-11.012,14.772-10.012,15.329-9.531a2.1,2.1,0,0,1,.686,1.55c.075,1.725-1.3,4.215-3.68,6.661a2.935,2.935,0,0,0-.811,2.352c.241,2.126.216,6.056-2.655,8.5-3.24,2.76-10.912,5.559-12.242,6.032-1.178,1.59-10.91,14.2-31.155,25.857a15.276,15.276,0,0,1-7.393,2.426m.159-23.515c-2.835,0-6.064.48-7.922,2.343-1.465,1.469-1.893,3.679-1.27,6.568,1.23,5.7,2.874,11.205,6.541,12.834,2.363,1.051,5.39.477,9.258-1.749,21.3-12.262,30.782-25.524,30.875-25.656a.627.627,0,0,1,.307-.232c.087-.03,8.727-3.057,12.026-5.868,2.427-2.067,2.433-5.523,2.221-7.4a4.151,4.151,0,0,1,1.159-3.372c2.525-2.6,3.369-4.708,3.325-5.728a.938.938,0,0,0-.2-.6h-.013c-.939,0-5.053,2.469-13.753,9.506a1.969,1.969,0,0,1-3.081-2.224,9.635,9.635,0,0,1,.874-1.731c1.41-2.238,1.824-4.962,1.327-5.422-.137-.126-.735-.114-2.017.842-4.864,3.629-7.184,14.176-7.206,14.282a.633.633,0,0,1-.183.326c-15.8,14.921-26.259,13.873-26.7,13.82a30.41,30.41,0,0,0-5.573-.54M454.9,871h0Z" transform="translate(-299.664 -621.088)"/>
    </g>
  </g>
</svg>
