<svg xmlns="http://www.w3.org/2000/svg" width="59.97" height="60" viewBox="0 0 59.97 60">
  <g id="noun-wedding-2058901" transform="translate(-10.004 -9.916)">
    <path id="Path_4988" data-name="Path 4988" d="M56.755,9.978a.787.787,0,0,0-1.033.424l-1.67,4a.79.79,0,0,0,1.457.609l1.67-4A.79.79,0,0,0,56.755,9.978Z" transform="translate(-11.106)" fill="#0d5551"/>
    <path id="Path_4989" data-name="Path 4989" d="M57.283,19.29a.789.789,0,0,0,.712.448.78.78,0,0,0,.341-.078l3.906-1.872a.789.789,0,1,0-.682-1.423l-3.906,1.872A.789.789,0,0,0,57.283,19.29Z" transform="translate(-11.995 -1.341)" fill="#0d5551"/>
    <path id="Path_4990" data-name="Path 4990" d="M70.037,38.452A98.743,98.743,0,0,0,65.8,25.324a.789.789,0,0,0-.9-.423L51,28.3a.789.789,0,0,0-.6.791,98.679,98.679,0,0,0,2.319,13.6C55.1,52.418,60.286,59.386,64.9,59.386c.091,0,.182-.011.272-.016l3.439,14.081-4.821,1.18a.789.789,0,0,0,.375,1.532l11.176-2.735a.789.789,0,1,0-.375-1.532l-4.821,1.18L66.709,59C70.994,57.088,72.471,48.373,70.037,38.452Zm-5.4-11.864c.46,1.069.995,2.574,1.523,4.191a20.538,20.538,0,0,0-8.576,4.6,21.219,21.219,0,0,1-4.219,2.886,84.4,84.4,0,0,1-1.357-8.585Zm.946,31.139c-3.864.96-9.054-6.112-11.336-15.41-.157-.641-.35-1.5-.555-2.462A22.169,22.169,0,0,0,58.587,36.6a18.976,18.976,0,0,1,8.055-4.314c.784,2.513,1.5,5.065,1.862,6.546C70.785,48.126,69.449,56.782,65.585,57.727Z" transform="translate(-11.687 -6.269)" fill="#0d5551"/>
    <path id="Path_4991" data-name="Path 4991" d="M68.9,44.581a.79.79,0,0,0-.579.955c1.126,4.595.949,8.45.474,9.608a.789.789,0,1,0,1.461.6c.665-1.623.75-5.884-.4-10.583A.791.791,0,0,0,68.9,44.581Z" transform="translate(-14.687 -8.984)" fill="#0d5551"/>
    <path id="Path_4992" data-name="Path 4992" d="M18.308,56.8a.791.791,0,0,0-.954.57.777.777,0,0,0,.579.94L29.108,61a.8.8,0,0,0,.188.022.787.787,0,0,0,.766-.592.777.777,0,0,0-.579-.94l-4.821-1.162L28.1,44.459c.091.005.181.016.273.016,4.616,0,9.8-6.865,12.186-16.445a95.8,95.8,0,0,0,2.319-13.4.779.779,0,0,0-.6-.779L28.377,10.5a.8.8,0,0,0-.9.417A96.186,96.186,0,0,0,23.24,23.852c-2.434,9.772-.958,18.357,3.327,20.24L23.129,57.96ZM28.637,12.164l12.63,3.045c-.131,1.734-.574,4.416-1.06,6.95a21.19,21.19,0,0,1-4.116-2.827,20.452,20.452,0,0,0-8.46-4.551C27.983,13.779,28.327,12.873,28.637,12.164ZM24.773,24.222c.439-1.761,1.387-5.057,2.354-7.968a18.878,18.878,0,0,1,7.953,4.271A22.114,22.114,0,0,0,39.9,23.737c-.319,1.567-.632,2.977-.868,3.922C36.746,36.819,31.56,43.78,27.691,42.84S22.492,33.382,24.773,24.222Z" transform="translate(-1.543 -0.119)" fill="#0d5551"/>
    <path id="Path_4993" data-name="Path 4993" d="M30.552,41.374a.789.789,0,0,0,.431-1.029c-.587-1.432-.812-6.175.569-11.81a.789.789,0,1,0-1.533-.376c-1.394,5.69-1.3,10.834-.5,12.784a.789.789,0,0,0,.731.49A.773.773,0,0,0,30.552,41.374Z" transform="translate(-4.773 -4.614)" fill="#0d5551"/>
    <path id="Path_4994" data-name="Path 4994" d="M45.694,71.828a.8.8,0,0,0,.277-.05c.236-.089,5.8-2.22,6.84-6.4A4.254,4.254,0,0,0,50.393,60.3a4.2,4.2,0,0,0-4.7.863A4.2,4.2,0,0,0,41,60.3a4.254,4.254,0,0,0-2.42,5.073c1.039,4.184,6.6,6.315,6.841,6.4A.8.8,0,0,0,45.694,71.828Zm-5.585-6.834a2.684,2.684,0,0,1,1.523-3.247,2.761,2.761,0,0,1,1.1-.232,2.713,2.713,0,0,1,2.3,1.329.79.79,0,0,0,1.315,0,2.71,2.71,0,0,1,4.927,2.15c-.722,2.911-4.521,4.733-5.585,5.192C44.628,69.728,40.834,67.914,40.109,64.993Z" transform="translate(-7.453 -12.983)" fill="#0d5551"/>
    <path id="Path_4995" data-name="Path 4995" d="M85.589,17.313a4.741,4.741,0,0,0-2.667-5.591,4.555,4.555,0,0,0-5.144,1.026,4.553,4.553,0,0,0-5.145-1.026,4.741,4.741,0,0,0-2.667,5.591c1.14,4.645,7.271,7.018,7.531,7.117a.779.779,0,0,0,.28.052.8.8,0,0,0,.28-.051C78.318,24.331,84.45,21.958,85.589,17.313Zm-7.811,5.525c-1.148-.5-5.459-2.565-6.278-5.9a3.144,3.144,0,0,1,1.764-3.767,3.033,3.033,0,0,1,3.854,1.274.789.789,0,0,0,1.32,0,3.03,3.03,0,0,1,3.854-1.274,3.144,3.144,0,0,1,1.764,3.767C83.237,20.273,78.926,22.34,77.778,22.837Z" transform="translate(-15.774 -0.299)" fill="#0d5551"/>
    <path id="Path_4996" data-name="Path 4996" d="M15.42,21.621a.789.789,0,0,0,.574,0c.183-.072,4.5-1.789,5.3-5.177a3.578,3.578,0,0,0-2.026-4.228,3.312,3.312,0,0,0-3.564.623,3.31,3.31,0,0,0-3.564-.624,3.58,3.58,0,0,0-2.027,4.229C10.925,19.832,15.237,21.549,15.42,21.621Zm-2.661-7.952a1.807,1.807,0,0,1,.7-.144,1.858,1.858,0,0,1,1.582.966.789.789,0,0,0,1.331,0,1.789,1.789,0,0,1,2.283-.822,2,2,0,0,1,1.107,2.408c-.514,2.154-3.169,3.539-4.055,3.947-.886-.408-3.541-1.793-4.055-3.947A2,2,0,0,1,12.759,13.669Z" transform="translate(0 -0.428)" fill="#0d5551"/>
    <path id="Path_4997" data-name="Path 4997" d="M43.5,81.852a3.579,3.579,0,0,0-2.026-4.228,3.311,3.311,0,0,0-3.565.623,3.311,3.311,0,0,0-3.564-.623,3.579,3.579,0,0,0-2.026,4.228c.809,3.389,5.121,5.106,5.3,5.178a.789.789,0,0,0,.574,0C38.38,86.958,42.693,85.241,43.5,81.852Zm-5.6,3.583c-1.19-.536-3.579-1.976-4.05-3.95a2,2,0,0,1,1.107-2.407,1.794,1.794,0,0,1,.7-.145,1.858,1.858,0,0,1,1.582.966.789.789,0,0,0,1.331,0,1.785,1.785,0,0,1,2.283-.821,2,2,0,0,1,1.107,2.407C41.451,83.644,38.787,85.031,37.906,85.435Z" transform="translate(-5.753 -17.384)" fill="#0d5551"/>
  </g>
</svg>
