<svg xmlns="http://www.w3.org/2000/svg" width="21.066" height="19.686" viewBox="0 0 21.066 19.686">
  <path id="Path_5039" data-name="Path 5039" d="M153.716,155.98a5.572,5.572,0,0,0-4.473,2.383,5.405,5.405,0,0,0-4.473-2.383,5.754,5.754,0,0,0-5.56,5.936c0,6.229,9.406,12.416,9.824,12.666a.7.7,0,0,0,.209.084.32.32,0,0,0,.209-.084c.418-.251,9.824-6.4,9.824-12.666a5.754,5.754,0,0,0-5.56-5.936ZM149.243,173.7c-1.421-.961-9.2-6.521-9.2-11.789a4.917,4.917,0,0,1,4.724-5.1,4.669,4.669,0,0,1,4.1,2.55.443.443,0,0,0,.752,0,4.669,4.669,0,0,1,4.1-2.55,4.917,4.917,0,0,1,4.724,5.1c0,5.309-7.775,10.827-9.2,11.789Z" transform="translate(-138.71 -155.48)" fill="#fb8637" stroke="#fb8637" stroke-width="1"/>
</svg>
