<svg xmlns="http://www.w3.org/2000/svg" width="21.066" height="19.686" viewBox="0 0 21.066 19.686">
  <path id="Path_5040" data-name="Path 5040" d="M153.716,155.98a5.572,5.572,0,0,0-4.473,2.383,5.405,5.405,0,0,0-4.473-2.383,5.754,5.754,0,0,0-5.56,5.936c0,6.229,9.406,12.416,9.824,12.666a.7.7,0,0,0,.209.084.32.32,0,0,0,.209-.084c.418-.251,9.824-6.4,9.824-12.666a5.754,5.754,0,0,0-5.56-5.936Zm-4.1,3.386c.007-.013,2.438-2.55,4.1-2.55C156.308,156.816,149.536,159.491,149.619,159.366Z" transform="translate(-138.71 -155.48)" fill="#fb8637" stroke="#fb8637" stroke-width="1"/>
</svg>
